<?xml version="1.0" encoding="iso-8859-1"?>
<!-- Generator: Adobe Illustrator 19.0.0, SVG Export Plug-In . SVG Version: 6.00 Build 0)  -->
<svg version="1.1" id="Layer_1" xmlns="http://www.w3.org/2000/svg" xmlns:xlink="http://www.w3.org/1999/xlink" x="0px" y="0px"
	 viewBox="0 0 495 495" style="enable-background:new 0 0 495 495;" xml:space="preserve">
<g>
	<path style="fill:#006DF0;" d="M267.5,393.716v40.293c87.487-9.316,157.193-79.021,166.509-166.509h-40.293
		C384.814,332.905,332.905,384.814,267.5,393.716z"/>
	<path style="fill:#006DF0;" d="M393.716,227.5h40.293C424.693,140.012,354.987,70.307,267.5,60.991v40.293
		C332.905,110.186,384.814,162.095,393.716,227.5z"/>
	<path style="fill:#006DF0;" d="M101.284,267.5H60.991c9.316,87.488,79.021,157.193,166.509,166.509v-40.293
		C162.095,384.814,110.186,332.905,101.284,267.5z"/>
	<path style="fill:#006DF0;" d="M227.5,101.284V60.991C140.013,70.307,70.307,140.012,60.991,227.5h40.293
		C110.186,162.095,162.095,110.186,227.5,101.284z"/>
	<rect x="227.5" y="335.153" style="fill:#004FAC;" width="40" height="159.847"/>
	<rect x="335.152" y="227.5" style="fill:#004FAC;" width="159.848" height="40"/>
	<rect x="227.5" style="fill:#004FAC;" width="40" height="159.847"/>
	<rect y="227.5" style="fill:#004FAC;" width="159.848" height="40"/>
</g>
<g>
</g>
<g>
</g>
<g>
</g>
<g>
</g>
<g>
</g>
<g>
</g>
<g>
</g>
<g>
</g>
<g>
</g>
<g>
</g>
<g>
</g>
<g>
</g>
<g>
</g>
<g>
</g>
<g>
</g>
</svg>
