<?xml version="1.0" encoding="utf-8"?>
<!-- Generator: Adobe Illustrator 22.1.0, SVG Export Plug-In . SVG Version: 6.00 Build 0)  -->
<svg version="1.1" id="Capa_1" xmlns="http://www.w3.org/2000/svg" xmlns:xlink="http://www.w3.org/1999/xlink" x="0px" y="0px"
	 viewBox="0 0 317.3 124.6" style="enable-background:new 0 0 317.3 124.6;" xml:space="preserve">
<style type="text/css">
	.st0{fill:#FFFFFF;}
</style>
<g>
	<g>
		<path class="st0" d="M74.8,21.6c0.7-0.6,1.7-1.2,2.8-1.7c1.1-0.6,2.3-0.9,3.6-1.2c1.8-0.3,3.6-0.5,5.4-0.6
			c1.8-0.1,3.6-0.1,5.3,0.1c1.7,0.1,3.3,0.3,4.8,0.6s2.8,0.7,3.8,1.1l0,0c0.7,0.3,1.4,0.6,2.2,0.9c0.8,0.3,1.5,0.7,2.3,1.1
			c0.7,0.4,1.4,0.8,2.1,1.3c0.7,0.5,1.2,1,1.7,1.6s0.9,1.3,1.1,2c0.2,0.7,0.3,1.4,0.3,2.2c0,0.7-0.2,1.4-0.5,2s-0.7,1.2-1.3,1.7
			c-0.4,0.3-0.7,0.5-1,0.7c-0.3,0.1-0.5,0.2-0.7,0.2s-0.4-0.1-0.5-0.2c-0.2-0.1-0.3-0.3-0.5-0.5c-0.3-0.3-0.4-0.6-0.4-0.9
			c0-0.3,0-0.5,0.1-0.8c0.1-0.2,0.2-0.5,0.4-0.7s0.3-0.5,0.4-0.7c0.1-0.2,0.2-0.4,0.2-0.7c0-0.2-0.1-0.4-0.2-0.7
			c-0.5-0.6-1.1-1.1-1.9-1.6c-0.8-0.5-1.6-0.9-2.6-1.3c-1-0.4-2-0.7-3-1c-1.1-0.3-2.1-0.6-3.1-0.8s-2-0.4-3-0.5
			c-0.9-0.1-1.8-0.2-2.5-0.3c-1.1,0-2.2,0-3.3,0c-1.1,0.1-2.1,0.2-3.1,0.4s-1.9,0.5-2.8,0.9c-0.9,0.4-1.7,0.9-2.5,1.6
			c-0.6,0.5-1.1,1-1.4,1.6c-0.3,0.6-0.5,1.1-0.7,1.6c-0.2,0.6-0.1,1.1,0,1.7c0.2,0.5,0.5,1.1,1,1.6c1,1.2,2,2.3,3.1,3.2
			c1.1,0.9,2.1,1.7,3.3,2.3c1.1,0.7,2.3,1.3,3.5,1.8s2.5,1.1,3.8,1.6l0.5,0.6c0.2,0.2,0.3,0.4,0.3,0.7c0.1,0.3,0.1,0.5,0.1,0.8
			s-0.1,0.5-0.2,0.8c-0.1,0.2-0.2,0.4-0.4,0.6c-0.4,0.3-1,0.5-1.7,0.5s-1.5-0.2-2.4-0.5s-1.7-0.7-2.7-1.1c-0.9-0.5-1.8-1-2.7-1.5
			c-0.8-0.5-1.6-1-2.3-1.5s-1.2-0.9-1.6-1.2c-0.3-0.3-0.6-0.5-0.9-0.8c-0.3-0.3-0.6-0.6-1-0.9c-0.4-0.4-0.8-0.8-1.3-1.3
			s-1.1-1.2-1.8-2.1c-0.4-0.5-0.7-1.1-0.9-1.6c-0.2-0.6-0.4-1.1-0.4-1.6c-0.1-0.5-0.1-1-0.1-1.4s0.1-0.8,0.1-1
			c0.2-1.6,0.5-2.9,1.1-4C73,23.4,73.8,22.5,74.8,21.6z"/>
		<path class="st0" d="M81,12.1c0.8-0.5,1.8-1,2.9-1.5c1.1-0.5,2.4-0.7,3.7-0.8c1.8-0.1,3.6-0.2,5.5-0.1c1.8,0.1,3.6,0.3,5.3,0.6
			s3.2,0.6,4.7,1c1.4,0.4,2.7,0.9,3.7,1.5l0,0c0.7,0.3,1.4,0.7,2.1,1.1s1.4,0.8,2.1,1.3c0.7,0.5,1.4,0.9,2,1.5
			c0.6,0.5,1.1,1.1,1.6,1.8c0.4,0.7,0.7,1.3,0.9,2.1c0.2,0.7,0.2,1.5,0.1,2.2c-0.1,0.7-0.3,1.4-0.7,2s-0.8,1.1-1.4,1.5
			c-0.4,0.3-0.8,0.5-1,0.6c-0.3,0.1-0.5,0.1-0.7,0.1s-0.4-0.1-0.5-0.3s-0.3-0.4-0.5-0.6c-0.2-0.3-0.3-0.7-0.3-0.9
			c0-0.3,0.1-0.5,0.2-0.8c0.1-0.2,0.3-0.5,0.4-0.7c0.2-0.2,0.3-0.4,0.5-0.6c0.1-0.2,0.2-0.4,0.3-0.6c0-0.2,0-0.4-0.2-0.7
			c-0.4-0.6-1-1.2-1.7-1.8s-1.6-1.1-2.5-1.6s-1.9-0.9-2.9-1.3c-1-0.4-2-0.8-3-1.1s-2-0.6-2.9-0.8s-1.7-0.4-2.4-0.5
			c-1.1-0.2-2.2-0.2-3.3-0.3c-1.1,0-2.1,0-3.1,0.1s-2,0.4-2.9,0.7s-1.8,0.8-2.7,1.3c-0.7,0.4-1.2,0.9-1.5,1.5
			c-0.4,0.5-0.6,1.1-0.8,1.5c-0.2,0.6-0.3,1.1-0.1,1.7c0.1,0.5,0.4,1.1,0.8,1.7c0.9,1.3,1.8,2.5,2.8,3.4c1,1,2,1.8,3,2.6
			s2.2,1.5,3.3,2.1c1.2,0.6,2.4,1.3,3.6,1.9l0.4,0.6c0.1,0.2,0.2,0.4,0.3,0.7c0,0.3,0,0.5,0,0.8s-0.1,0.5-0.2,0.7
			c-0.1,0.2-0.3,0.4-0.5,0.5c-0.5,0.3-1,0.4-1.7,0.3s-1.5-0.3-2.3-0.7c-0.8-0.4-1.7-0.8-2.6-1.4c-0.9-0.6-1.7-1.1-2.5-1.7
			c-0.8-0.6-1.5-1.1-2.1-1.7c-0.6-0.5-1.1-1-1.5-1.3c-0.3-0.3-0.6-0.6-0.9-0.9c-0.3-0.3-0.6-0.6-0.9-1c-0.4-0.4-0.7-0.9-1.2-1.5
			c-0.4-0.6-1-1.3-1.6-2.2c-0.4-0.6-0.6-1.1-0.8-1.7c-0.2-0.6-0.2-1.1-0.3-1.6c0-0.5,0-1,0-1.4c0.1-0.4,0.1-0.7,0.2-1
			c0.3-1.5,0.8-2.8,1.4-3.9C79.1,13.7,79.9,12.8,81,12.1z"/>
		<path class="st0" d="M102.2,101.6l15.5,5.2c1.2,0.4,2.1,1.1,2.7,2.1c0.6,1,0.8,2,0.4,3c-0.3,1-1.1,1.8-2.2,2.2
			c-1.1,0.4-2.3,0.4-3.4,0l-16-5.4c-2-0.7-4-1.9-5.8-3.8c-1.8-1.8-2.9-3.6-3.3-5.3l-4.4-19.8c-0.5-2.8-0.4-5.5,0.5-8
			c0.9-2.8,2.3-4.9,4.3-6.5l15.4-13c1.5-1.2,3.4-2,5.8-2.5c2.4-0.5,4.5-0.4,6.4,0.2l16.9,5.7c1.2,0.4,2.1,1.1,2.7,2.1
			c0.6,1,0.7,2,0.4,3S137,62.6,136,63c-1.1,0.5-2.2,0.5-3.4,0.1l-16.4-5.2c-1.4-0.5-2.7-0.1-4,1l-14.6,12c-1.2,0.9-2,2.2-2.5,3.9
			c-0.6,1.7-0.7,3.4-0.3,5l4,18.1C99.1,99.7,100.3,100.9,102.2,101.6z"/>
		<path class="st0" d="M113.3,63.9l12.7,4.3c1,0.3,1.7,0.8,2.3,1.6c0.6,0.7,0.7,1.4,0.5,2.1s-0.8,1.1-1.6,1.4
			c-0.9,0.2-1.8,0.2-2.8-0.1l-13.2-4.4c-1.7-0.6-3.3-1.5-4.8-2.8s-2.5-2.6-2.9-3.7L99,48.6c-0.6-1.9-0.6-3.7,0-5.4
			c0.6-1.8,1.7-3.2,3.1-4.2l11.8-8.1c1.1-0.7,2.6-1.2,4.5-1.4s3.6-0.1,5.2,0.4l13.9,4.7c1,0.3,1.7,0.8,2.3,1.6
			c0.5,0.7,0.7,1.4,0.5,2.1s-0.8,1.2-1.6,1.4c-0.9,0.3-1.8,0.2-2.7-0.1l-13.4-4.5c-1.1-0.4-2.2-0.2-3.2,0.5l-11.3,7.2
			c-0.9,0.6-1.5,1.4-1.9,2.5s-0.4,2.3,0,3.4l4.1,12.5C110.7,62.4,111.7,63.3,113.3,63.9z"/>
		<path class="st0" d="M146.1,65.3l5.9,2c0.5,0.2,0.8,0.4,1.1,0.7c0.3,0.3,0.3,0.7,0.2,1s-0.4,0.5-0.8,0.6c-0.4,0.1-0.8,0.1-1.3-0.1
			l-6.1-2c-0.8-0.3-1.5-0.7-2.2-1.3c-0.7-0.6-1.2-1.2-1.4-1.7l-2.1-6.4c-0.3-0.9-0.3-1.7,0-2.5s0.8-1.5,1.5-2l5.5-3.8
			c0.5-0.3,1.2-0.6,2.1-0.7c0.9-0.1,1.7,0,2.4,0.2l6.5,2.2c0.5,0.2,0.8,0.4,1,0.7c0.2,0.3,0.3,0.7,0.2,1s-0.4,0.5-0.8,0.7
			c-0.4,0.1-0.8,0.1-1.3,0l-6.2-2.1c-0.5-0.2-1-0.1-1.5,0.2l-5.2,3.5c-0.4,0.3-0.7,0.7-0.9,1.2s-0.2,1.1,0,1.6l1.9,5.8
			C144.9,64.7,145.3,65.1,146.1,65.3z"/>
		<path class="st0" d="M142.1,76.3l5.9,2c0.5,0.2,0.8,0.4,1.1,0.7c0.3,0.3,0.3,0.7,0.2,1s-0.4,0.5-0.8,0.6c-0.4,0.1-0.8,0.1-1.3-0.1
			l-6.1-2c-0.8-0.3-1.5-0.7-2.2-1.3c-0.7-0.6-1.2-1.2-1.4-1.7l-2.1-6.4c-0.3-0.9-0.3-1.7,0-2.5s0.8-1.5,1.5-2l5.5-3.8
			c0.5-0.3,1.2-0.6,2.1-0.7c0.9-0.1,1.7,0,2.4,0.2l6.5,2.2c0.5,0.2,0.8,0.4,1,0.7c0.2,0.3,0.3,0.7,0.2,1c-0.1,0.3-0.4,0.5-0.8,0.7
			c-0.4,0.1-0.8,0.1-1.3,0l-6.2-2.1c-0.5-0.2-1-0.1-1.5,0.2l-5.2,3.5c-0.4,0.3-0.7,0.7-0.9,1.2s-0.2,1.1,0,1.6l1.9,5.8
			C140.9,75.7,141.3,76.1,142.1,76.3z"/>
		<path class="st0" d="M154.4,18.6L152.7,9c-0.2-0.9-0.6-1.8-1.4-2.8c-0.8-1-1.6-1.7-2.5-2.1l-0.7-0.3l0,0c-0.3-0.5-0.8-0.8-1.4-1
			l-2.4-0.7l-3.8-1.7c-0.6-0.3-1.2-0.3-1.7-0.2c-0.1,0-0.3,0.1-0.4,0.1l-0.5-0.1c-1-0.3-2.1-0.3-3.3-0.1c-1.2,0.2-2.2,0.6-2.9,1.2
			l-7.6,6.2c-0.9,0.8-1.6,1.8-2,3.1c-0.4,1.2-0.3,2.4,0,3.8l2.9,9.4c0.3,0.8,0.9,1.6,1.9,2.5s2,1.5,3.1,1.8l4.3,1.3l2.5,1.1
			c1,0.5,2.2,0.7,3.5,0.7s2.3-0.2,3-0.7l8.3-5.2c1.1-0.8,2-1.7,2.5-2.9C154.5,21,154.6,19.8,154.4,18.6z M149.5,20.2
			c-0.4,0.8-0.9,1.4-1.5,1.8l-7.6,4.8c-0.2,0.2-0.5,0.2-0.7,0.3c-0.1-0.1-0.3-0.1-0.4-0.2l-3.9-1.2l-5.2-2.4
			c-0.2-0.1-0.4-0.2-0.7-0.2c-0.1-0.1-0.1-0.3-0.2-0.4l-2.6-8.6c-0.2-0.8-0.2-1.5,0-2.4c0.2-0.8,0.6-1.4,1.2-1.9l7.2-5.8
			c0.6-0.5,1.3-0.7,2-0.5l5.9,1.7l4.1,1.8c0.7,0.3,1.1,0.9,1.2,1.7l1.6,9.1C150,18.7,149.9,19.4,149.5,20.2z"/>
		<polygon class="st0" points="94.1,109 106.4,113.1 89.9,124.6 		"/>
	</g>
	<path class="st0" d="M42,42.7l-2.3,0.6c-4.8,4.9-8.5,10.2-10.9,15.9c-2.4,5.7-3.7,11.2-3.7,16.5C25,81,26,85.3,28,88.7
		s5.1,6.2,9.3,8.5c8.8-3.1,16-6.7,21.9-10.8c3-0.2,5.1,0.5,6.4,2c1.2,1.6,1.8,3.8,1.7,6.8c-7.5,7.8-18.4,13.7-32.4,17.8
		c-11.2-1.5-19.8-5.4-25.9-11.7s-9.1-14.2-9-23.5c0.1-4.9,1-9.7,2.7-14.2C4.4,59,7,54,10.5,48.5c6-5.3,12.1-9.3,18.3-11.8
		c6.2-2.6,13.3-4.3,21.3-5.3c6.6,2.4,11.5,5.6,14.8,9.7c3.2,4,5.3,8.9,6.1,14.8c-1.1,3.1-4.2,5.4-9.1,6.8c-4.9,1.4-10,1-15.2-1.2
		C46,51.8,44.6,45.5,42,42.7z"/>
	<path class="st0" d="M211,42.7l-2.3,0.6c-4.8,4.9-8.5,10.2-10.9,15.9c-2.4,5.7-3.7,11.2-3.7,16.5c-0.1,5.3,0.9,9.6,2.9,13
		s5.1,6.2,9.3,8.5c8.8-3.1,16-6.7,21.9-10.8c3-0.2,5.1,0.5,6.4,2c1.2,1.6,1.8,3.8,1.7,6.8c-7.5,7.8-18.4,13.7-32.4,17.8
		c-11.2-1.5-19.8-5.4-25.9-11.7c-6.1-6.3-9.1-14.2-9-23.5c0.1-4.9,1-9.7,2.7-14.2c1.7-4.6,4.3-9.6,7.8-15.1
		c6-5.3,12.1-9.3,18.3-11.8c6.2-2.6,13.3-4.3,21.3-5.3c6.6,2.4,11.5,5.6,14.8,9.7c3.2,4,5.3,8.9,6.1,14.8c-1.1,3.1-4.2,5.4-9.1,6.8
		c-4.9,1.4-10,1-15.2-1.2C215,51.8,213.5,45.5,211,42.7z"/>
	<path class="st0" d="M288.3,42.7l-2.3,0.6c-4.8,4.9-8.5,10.2-10.9,15.9c-2.4,5.7-3.7,11.2-3.7,16.5c-0.1,5.3,0.9,9.6,2.9,13
		s5.1,6.2,9.3,8.5c8.8-3.1,16-6.7,21.9-10.8c3-0.2,5.1,0.5,6.4,2c1.2,1.6,1.8,3.8,1.7,6.8c-7.5,7.8-18.4,13.7-32.4,17.8
		c-11.2-1.5-19.8-5.4-25.9-11.7s-9.1-14.2-9-23.5c0.1-4.9,1-9.7,2.7-14.2c1.7-4.6,4.3-9.6,7.8-15.1c6-5.3,12.1-9.3,18.3-11.8
		c6.2-2.6,13.3-4.3,21.3-5.3c6.6,2.4,11.5,5.6,14.8,9.7c3.2,4,5.3,8.9,6.1,14.8c-1.1,3.1-4.2,5.4-9.1,6.8c-4.9,1.4-10,1-15.2-1.2
		C292.3,51.8,290.9,45.5,288.3,42.7z"/>
</g>
</svg>
