<svg xmlns="http://www.w3.org/2000/svg" xmlns:xlink="http://www.w3.org/1999/xlink" viewBox="0 0 618.766 326.716"><defs><style>.a{fill:url(#a);}.b{fill:url(#b);}.c{fill:url(#c);}.d{fill:url(#d);}.e{fill:url(#e);}.f{fill:url(#f);}.g{fill:url(#g);}.h{fill:url(#h);}.i{fill:url(#i);}.j{fill:#424242;}.k{fill:url(#j);}.l{fill:url(#k);}.m{fill:url(#l);}.n{fill:url(#m);}.o{fill:url(#n);}.p{fill:url(#o);}.q{fill:url(#p);}.r{fill:#ffa726;}.s{fill:url(#q);}.t{fill:url(#r);}.u{fill:url(#s);}.v{fill:#01579b;}.w{fill:url(#t);}.x{fill:url(#u);}.y{fill:url(#v);}.z{fill:url(#w);}.aa{fill:url(#x);}.ab{fill:url(#y);}.ac{fill:url(#z);}.ad{fill:url(#aa);}.ae{fill:url(#ab);}.af{fill:url(#ac);}.ag{fill:url(#ad);}.ah{fill:url(#ae);}.ai{fill:url(#af);}.aj{fill:url(#ag);}.ak{fill:url(#ah);}.al{fill:url(#ai);}.am{fill:url(#aj);}.an{fill:url(#ak);}.ao{fill:url(#al);}.ap{fill:#b0bec5;}.aq{fill:url(#am);}.ar{fill:#ffcdd2;}.as{fill:url(#an);}.at{fill:url(#ao);}.au{fill:url(#ap);}.av{fill:url(#aq);}.aw{fill:url(#ar);}.ax{fill:url(#as);}.ay{fill:url(#at);}.az{fill:url(#au);}.ba{fill:url(#av);}.bb{clip-path:url(#aw);}.bc{fill:url(#ax);}.bd{fill:url(#ay);}.be{fill:url(#az);}.bf{fill:url(#ba);}.bg{fill:#e0e0e0;}.bh{fill:#e0f7fa;}.bi{fill:url(#bb);}.bj{fill:#5d4037;}.bk{fill:url(#bc);}.bl{fill:url(#bd);}.bm{fill:url(#be);}.bn{fill:url(#bf);}.bo{fill:url(#bg);}.bp{fill:url(#bh);}.bq{fill:#ffab91;}.br{fill:url(#bi);}.bs{fill:url(#bj);}.bt{fill:url(#bk);}.bu{fill:url(#bl);}.bv{fill:url(#bm);}.bw{fill:url(#bn);}.bx{fill:#b29c88;}.by{fill:url(#bo);}.bz{fill:#303f9f;}.ca{fill:#212121;}.cb{fill:url(#bp);}.cc{fill:url(#bq);}.cd{fill:url(#br);}.ce{fill:url(#bs);}.cf{fill:url(#bt);}.cg{fill:url(#bu);}.ch{fill:url(#bv);}.ci{fill:url(#bw);}.cj{fill:url(#bx);}.ck{fill:url(#by);}.cl{fill:url(#bz);}.cm{fill:url(#ca);}.cn{fill:url(#cb);}.co{fill:url(#cc);}.cp{fill:url(#cd);}.cq{fill:url(#ce);}.cr{fill:url(#cf);}.cs{fill:url(#cg);}.ct{fill:url(#ch);}.cu{fill:url(#ci);}.cv{fill:url(#cj);}.cw{fill:url(#ck);}.cx{fill:url(#cl);}.cy{fill:url(#cm);}.cz{fill:url(#cn);}.da{fill:url(#co);}.db{fill:#263238;}.dc{fill:#ffc400;}.dd{fill:url(#cp);}.de{fill:url(#cq);}.df{fill:url(#cr);}.dg{fill:url(#cs);}.dh{fill:url(#ct);}.di{fill:url(#cu);}</style><radialGradient id="a" cx="-9.557" cy="254.295" r="284.561" gradientTransform="translate(-8.022 247.705) scale(0.161 0.026)" gradientUnits="userSpaceOnUse"><stop offset="0" stop-color="#cfd8dc"/><stop offset="1" stop-color="#cfd8dc" stop-opacity="0"/></radialGradient><radialGradient id="b" cx="162.404" cy="241.866" r="125.719" gradientTransform="translate(123.157 227.678) scale(0.242 0.059)" xlink:href="#a"/><linearGradient id="c" x1="2.372" y1="0.645" x2="3.532" y2="0.645" gradientUnits="objectBoundingBox"><stop offset="0" stop-color="#00695c"/><stop offset="1" stop-color="#81c784"/></linearGradient><linearGradient id="d" x1="2.397" y1="0.527" x2="3.429" y2="0.527" xlink:href="#c"/><linearGradient id="e" x1="0.587" y1="0.118" x2="1.521" y2="0.118" xlink:href="#c"/><linearGradient id="f" x1="2.188" y1="0.34" x2="3.179" y2="0.34" xlink:href="#c"/><linearGradient id="g" x1="0.22" y1="0.011" x2="1.053" y2="0.011" xlink:href="#c"/><linearGradient id="h" x1="2.257" y1="0.277" x2="3.35" y2="0.277" xlink:href="#c"/><linearGradient id="i" x1="-0.563" y1="-0.248" x2="0.292" y2="-0.248" xlink:href="#c"/><linearGradient id="j" x1="3.739" y1="-0.693" x2="4.678" y2="-0.693" xlink:href="#c"/><linearGradient id="k" x1="4.558" y1="-0.401" x2="5.598" y2="-0.401" xlink:href="#c"/><linearGradient id="l" x1="4.323" y1="0.262" x2="5.425" y2="0.262" xlink:href="#c"/><linearGradient id="m" x1="4.737" y1="-0.087" x2="5.826" y2="-0.087" xlink:href="#c"/><linearGradient id="n" x1="5.629" y1="0.454" x2="6.863" y2="0.454" xlink:href="#c"/><linearGradient id="o" x1="4.351" y1="0.053" x2="5.327" y2="0.053" xlink:href="#c"/><linearGradient id="p" x1="3.027" y1="0.656" x2="4.334" y2="0.656" xlink:href="#c"/><linearGradient id="q" x1="0.501" y1="0.428" x2="0.501" y2="-0.1" gradientUnits="objectBoundingBox"><stop offset="0.011" stop-color="#ffa726"/><stop offset="1" stop-color="#f26522"/></linearGradient><radialGradient id="r" cx="38.547" cy="241.866" r="125.719" gradientTransform="translate(29.231 227.678) scale(0.242 0.059)" xlink:href="#a"/><linearGradient id="s" x1="0.479" y1="0.379" x2="0.33" y2="0.967" gradientUnits="objectBoundingBox"><stop offset="0.002" stop-color="#7e57c2"/><stop offset="1" stop-color="#1b0f40"/></linearGradient><linearGradient id="t" x1="0.66" y1="0.106" x2="0.48" y2="0.87" xlink:href="#s"/><linearGradient id="u" x1="-0.109" y1="0.472" x2="-0.279" y2="1.307" xlink:href="#s"/><linearGradient id="v" x1="0.502" y1="0.429" x2="0.502" y2="-0.099" xlink:href="#q"/><radialGradient id="w" cx="20.322" cy="254.295" r="565.937" gradientTransform="translate(18.007 250.981) scale(0.114 0.013)" xlink:href="#a"/><linearGradient id="x" x1="0.5" y1="0.171" x2="0.5" y2="0.637" gradientUnits="objectBoundingBox"><stop offset="0" stop-color="#26a69a"/><stop offset="1" stop-color="#006064"/></linearGradient><linearGradient id="y" x1="0.342" y1="-0.037" x2="0.608" y2="0.859" gradientUnits="objectBoundingBox"><stop offset="0.036" stop-color="#b0bec5"/><stop offset="1" stop-color="#546e7a"/></linearGradient><linearGradient id="z" x1="-1.092" y1="-0.148" x2="-0.891" y2="0.662" gradientUnits="objectBoundingBox"><stop offset="0" stop-color="#ffcdd2"/><stop offset="1" stop-color="#e57373"/></linearGradient><linearGradient id="aa" x1="0.373" y1="0.842" x2="0.545" y2="0.381" gradientUnits="objectBoundingBox"><stop offset="0" stop-color="#263238"/><stop offset="1" stop-color="#000001"/></linearGradient><linearGradient id="ab" x1="4.107" y1="-1.096" x2="4.095" y2="-1.481" xlink:href="#z"/><linearGradient id="ac" x1="2.984" y1="-0.857" x2="2.984" y2="-1.153" xlink:href="#y"/><linearGradient id="ad" x1="2.331" y1="-1.175" x2="2.331" y2="-0.09" xlink:href="#z"/><linearGradient id="ae" x1="0.502" y1="0.26" x2="0.502" y2="-0.313" xlink:href="#aa"/><linearGradient id="af" x1="0.525" y1="0.541" x2="0.501" y2="0.166" xlink:href="#z"/><linearGradient id="ag" x1="0.504" y1="0.228" x2="0.504" y2="-0.099" xlink:href="#y"/><linearGradient id="ah" x1="0.497" y1="-0.27" x2="0.497" y2="1.026" xlink:href="#z"/><linearGradient id="ai" x1="0.449" y1="0.169" x2="0.679" y2="1.526" xlink:href="#z"/><linearGradient id="aj" x1="1.151" y1="0.79" x2="1.173" y2="-0.253" xlink:href="#y"/><linearGradient id="ak" x1="0.53" y1="0.22" x2="0.619" y2="-0.135" xlink:href="#y"/><linearGradient id="al" x1="0.499" y1="0.692" x2="0.499" y2="1.192" xlink:href="#y"/><linearGradient id="am" x1="0.833" y1="0.265" x2="1.071" y2="-0.003" xlink:href="#y"/><radialGradient id="an" cx="-261.597" cy="262.581" r="2166.049" gradientTransform="translate(-246.364 261.687) scale(0.058 0.003)" xlink:href="#a"/><linearGradient id="ao" x1="0.517" y1="0.296" x2="0.682" y2="1.15" xlink:href="#y"/><linearGradient id="ap" x1="-0.049" y1="0.499" x2="0.278" y2="0.499" gradientUnits="objectBoundingBox"><stop offset="0.036" stop-color="#ffab91"/><stop offset="1" stop-color="#ff8f6b"/></linearGradient><linearGradient id="aq" x1="8.73" y1="-16.445" x2="10.436" y2="-18.656" xlink:href="#y"/><linearGradient id="ar" x1="16.914" y1="-21.645" x2="20.206" y2="-24.431" xlink:href="#y"/><linearGradient id="as" x1="16.573" y1="-23.947" x2="19.375" y2="-28.65" xlink:href="#y"/><linearGradient id="at" x1="14.166" y1="-27.004" x2="17.17" y2="-30.523" xlink:href="#y"/><linearGradient id="au" x1="20.67" y1="-34.807" x2="24.774" y2="-39.207" xlink:href="#y"/><linearGradient id="av" x1="6.141" y1="7.221" x2="6.516" y2="8.104" xlink:href="#y"/><clipPath id="aw"><path d="M261.748,132.627h-13.3L246.3,113h8.1l4.305,8.231,4.812,9.117C264.028,131.487,263.141,132.627,261.748,132.627Z" transform="translate(-246.3 -113)"/></clipPath><linearGradient id="ax" x1="0.199" y1="0.501" x2="1.078" y2="0.501" gradientUnits="objectBoundingBox"><stop offset="0" stop-color="#d0d0d0"/><stop offset="1" stop-color="#757575"/></linearGradient><linearGradient id="ay" x1="0.665" y1="0.527" x2="1.488" y2="0.527" gradientUnits="objectBoundingBox"><stop offset="0.002" stop-color="#dedede"/><stop offset="1" stop-color="#757575"/></linearGradient><linearGradient id="az" x1="0.496" y1="0.735" x2="0.456" y2="-0.109" xlink:href="#ay"/><linearGradient id="ba" x1="0.842" y1="0.083" x2="0.842" y2="0.647" gradientUnits="objectBoundingBox"><stop offset="0" stop-color="#c4c4c4"/><stop offset="1" stop-color="#757575"/></linearGradient><linearGradient id="bb" x1="0.758" y1="0.876" x2="0.414" y2="0.254" gradientUnits="objectBoundingBox"><stop offset="0" stop-color="#26c6da"/><stop offset="1" stop-color="#072759"/></linearGradient><linearGradient id="bc" x1="0.692" y1="0.279" x2="1.321" y2="-0.797" xlink:href="#bb"/><linearGradient id="bd" x1="0.059" y1="0.054" x2="0.539" y2="0.583" xlink:href="#ap"/><linearGradient id="be" x1="0.521" y1="0.214" x2="0.463" y2="0.649" gradientUnits="objectBoundingBox"><stop offset="0.036" stop-color="#827717"/><stop offset="0.991" stop-color="#605b1f"/></linearGradient><linearGradient id="bf" x1="12.117" y1="0.671" x2="12.52" y2="0.1" xlink:href="#y"/><linearGradient id="bg" x1="0.374" y1="0.564" x2="1.24" y2="-1.406" xlink:href="#y"/><linearGradient id="bh" x1="0.691" y1="0.32" x2="0.888" y2="-0.015" xlink:href="#y"/><linearGradient id="bi" x1="7.274" y1="-10.376" x2="9.058" y2="-12.316" xlink:href="#y"/><linearGradient id="bj" x1="7.085" y1="-29.6" x2="8.592" y2="-33.45" xlink:href="#y"/><linearGradient id="bk" x1="12.701" y1="-17.996" x2="15.799" y2="-21.165" xlink:href="#y"/><linearGradient id="bl" x1="10.842" y1="-22.248" x2="13.695" y2="-26.221" xlink:href="#y"/><linearGradient id="bm" x1="16.014" y1="-29.211" x2="20.012" y2="-34.221" xlink:href="#y"/><linearGradient id="bn" x1="0.498" y1="0.35" x2="0.498" y2="-0.11" xlink:href="#y"/><linearGradient id="bo" x1="0.504" y1="0.176" x2="0.504" y2="-0.12" gradientUnits="objectBoundingBox"><stop offset="0.011" stop-color="#937963"/><stop offset="1" stop-color="#4a392e"/></linearGradient><linearGradient id="bp" x1="1.099" y1="-1.973" x2="1.099" y2="-2.493" xlink:href="#y"/><linearGradient id="bq" x1="4.164" y1="2.879" x2="4.835" y2="2.749" xlink:href="#y"/><linearGradient id="br" x1="0.55" y1="0.814" x2="1.209" y2="0.789" gradientUnits="objectBoundingBox"><stop offset="0.036" stop-color="#ff5722"/><stop offset="1" stop-color="#ffab91"/></linearGradient><linearGradient id="bs" x1="0.696" y1="1.182" x2="0.496" y2="0.597" xlink:href="#br"/><linearGradient id="bt" x1="11.316" y1="14.131" x2="12.102" y2="14.741" xlink:href="#y"/><linearGradient id="bu" x1="0.005" y1="0.498" x2="1.007" y2="0.498" gradientUnits="objectBoundingBox"><stop offset="0" stop-color="#303f9f"/><stop offset="1" stop-color="#0c0a4a"/></linearGradient><linearGradient id="bv" x1="0.429" y1="0.341" x2="0.666" y2="0.907" gradientUnits="objectBoundingBox"><stop offset="0.063" stop-color="#4d3835"/><stop offset="1" stop-color="#0f0a09"/></linearGradient><linearGradient id="bw" x1="0.501" y1="0.142" x2="0.501" y2="0.955" gradientUnits="objectBoundingBox"><stop offset="0.036" stop-color="#d81b60"/><stop offset="1" stop-color="#ad1457"/></linearGradient><linearGradient id="bx" x1="1.859" y1="0.731" x2="2.166" y2="0.114" xlink:href="#y"/><linearGradient id="by" x1="0.497" y1="0.189" x2="0.497" y2="-0.087" xlink:href="#y"/><linearGradient id="bz" x1="1.259" y1="1.926" x2="1.987" y2="1.735" xlink:href="#y"/><linearGradient id="ca" x1="11.678" y1="-17.121" x2="11.996" y2="-15.933" xlink:href="#y"/><linearGradient id="cb" x1="0.371" y1="0.889" x2="0.742" y2="0.381" xlink:href="#bo"/><linearGradient id="cc" x1="0.851" y1="0.889" x2="0.381" y2="0.201" gradientUnits="objectBoundingBox"><stop offset="0" stop-color="#0d47a1"/><stop offset="1" stop-color="#072759"/></linearGradient><linearGradient id="cd" x1="1.408" y1="-3.446" x2="1.094" y2="-0.64" xlink:href="#y"/><linearGradient id="ce" x1="2.418" y1="-4.489" x2="1.311" y2="-0.723" xlink:href="#y"/><linearGradient id="cf" x1="2.676" y1="-8.923" x2="0.96" y2="-1.419" xlink:href="#y"/><linearGradient id="cg" x1="2.996" y1="-9.224" x2="1.28" y2="-1.72" xlink:href="#y"/><linearGradient id="ch" x1="3.242" y1="-9.44" x2="1.526" y2="-1.936" xlink:href="#y"/><linearGradient id="ci" x1="4.434" y1="-13.153" x2="2.118" y2="-2.998" xlink:href="#y"/><linearGradient id="cj" x1="-1.026" y1="1.344" x2="-0.651" y2="2.227" xlink:href="#y"/><linearGradient id="ck" x1="0.496" y1="0.348" x2="0.331" y2="-0.872" xlink:href="#cc"/><linearGradient id="cl" x1="0.52" y1="0.232" x2="0.267" y2="0.655" gradientUnits="objectBoundingBox"><stop offset="0.036" stop-color="#ffc400"/><stop offset="1" stop-color="#ffab00"/></linearGradient><linearGradient id="cm" x1="0.493" y1="0.971" x2="0.508" y2="-0.117" xlink:href="#y"/><linearGradient id="cn" x1="0.45" y1="0.18" x2="0.611" y2="0.64" gradientUnits="objectBoundingBox"><stop offset="0.036" stop-color="#ff5252"/><stop offset="1" stop-color="#d50000"/></linearGradient><linearGradient id="co" x1="0.577" y1="0.32" x2="0.73" y2="-0.404" xlink:href="#y"/><linearGradient id="cp" x1="0.525" y1="0.267" x2="0.126" y2="1.504" xlink:href="#y"/><linearGradient id="cq" x1="-0.268" y1="1.622" x2="-2.209" y2="4.66" xlink:href="#y"/><linearGradient id="cr" x1="-0.292" y1="5.884" x2="-1.817" y2="15.857" xlink:href="#y"/><linearGradient id="cs" x1="-0.23" y1="5.483" x2="-1.755" y2="15.456" xlink:href="#y"/><linearGradient id="ct" x1="-0.183" y1="5.184" x2="-1.708" y2="15.198" xlink:href="#y"/><linearGradient id="cu" x1="-0.38" y1="6.501" x2="-2.443" y2="20.075" xlink:href="#y"/></defs><g transform="translate(0.02 0.017)"><ellipse class="a" cx="45.712" cy="7.344" rx="45.712" ry="7.344" transform="translate(430.406 301.88)"/><g transform="translate(358.231 -0.017)"><ellipse class="b" cx="30.39" cy="7.344" rx="30.39" ry="7.344" transform="translate(169.55 286.702)"/><g transform="translate(77.81)"><path class="c" d="M346.313,0A139.041,139.041,0,0,1,374.55,9.248c4.305,1.9,8.611,4.685,13.169,6.078a40.869,40.869,0,0,1,13.8,7.091,169.141,169.141,0,0,1,22.033,20.513,150.67,150.67,0,0,1,10,11.9c3.8,5.065,8.231,9.75,6.078,16.461-1.14,3.672-4.812,6.585-8.611,6.331-6.331-.253-8.864-4.179-12.409-8.864-2.912-3.925-6.078-7.6-9.37-11.27a214.609,214.609,0,0,0-20.513-19.627,73.376,73.376,0,0,1-9.624-10.257c-2.659-3.419-6.585-6.078-10-8.611A288.747,288.747,0,0,0,344.92,2.664C343.653,1.777,344.666-.249,346.313,0Z" transform="translate(-344.35 0.017)"/><path class="d" d="M361.617,78.645c2.153-2.659,3.292-5.951,6.331-7.977a24.69,24.69,0,0,1,8.484-3.292c7.471-1.646,15.322-.633,22.666,1.14,13.549,3.292,29.757,10.637,38.241,22.159,2.912,3.925,3.545,7.851,1.266,12.283-1.9,3.672-6.2,5.192-10.13,4.559-4.812-.76-7.091-4.685-10.383-7.6-4.559-4.052-10.383-6.838-15.955-9.117C395.3,88.142,388.588,85.609,382,82.57c-4.938-2.279-14.815-6.711-19.754-3.166C361.744,79.784,361.364,79.025,361.617,78.645Z" transform="translate(-339.774 17.739)"/><path class="e" d="M460.331,60.115c14.182-1.14,25.832,11.65,31.276,23.552a.638.638,0,0,1-.76.886c-4.432-1.773-8.484-4.559-13.042-5.951a30.827,30.827,0,0,0-13.169-.76c-8.357,1.393-10.13,10-11.776,17.221-1.266,5.318-7.6,8.357-12.663,6.838-5.7-1.646-7.977-7.218-6.838-12.663C435.892,75.31,444.883,61.255,460.331,60.115Z" transform="translate(-320.727 16.009)"/><path class="f" d="M380.448,128.448c3.292-4.938,6.078-9.624,11.016-13.042a33.907,33.907,0,0,1,18.234-6.2c13.929-.253,30.01,9.624,34.569,23.173,3.292,9.877-10.257,15.7-16.715,9.117-2.912-2.912-4.812-6.331-8.231-8.737a33.257,33.257,0,0,0-11.65-5.192c-7.724-2.026-18.487-2.406-25.2,2.659C381.461,130.854,379.562,129.714,380.448,128.448Z" transform="translate(-334.8 29.096)"/><path class="g" d="M461.161,105.136a20.157,20.157,0,0,1,15.448-2.406c4.938,1.393,7.344,4.685,10.89,7.977.76.633-.127,2.153-1.013,1.773-4.812-2.153-13.422,3.419-16.588,6.964-4.432,4.938-5.318,12.156-5.065,18.487.633,12.916-20.26,12.663-20.134-.38C444.827,124.637,449.385,111.848,461.161,105.136Z" transform="translate(-317.631 27.209)"/><path class="h" d="M396.088,149.658c6.585-5.7,13.169-6.458,21.273-2.786,9.117,4.179,15.828,11.143,22.666,18.234,9.244,9.37-5.951,23.679-14.942,14.055-4.938-5.445-9.244-11.143-13.929-16.715-3.039-3.8-9.117-9.877-14.182-10.383C395.834,151.811,395.2,150.418,396.088,149.658Z" transform="translate(-330.686 38.529)"/><path class="i" d="M458.632,167.018c3.292-.633,5.318-2.786,7.471-5.192,3.419-3.8,6.965-7.851,11.776-10a20.277,20.277,0,0,1,11.9-1.773c4.432.76,6.2,2.533,8.611,5.951A1.346,1.346,0,0,1,497,158.154c-6.965-1.52-11.523,10.763-14.435,14.815-4.812,6.711-11.27,12.536-19.627,14.055C450.148,189.431,445.716,169.424,458.632,167.018Z" transform="translate(-315.988 39.91)"/><path class="j" d="M381.006,84.382a99.949,99.949,0,0,1,64.326,46.345c1.393,2.406,2.786,4.812,4.052,7.344A319.857,319.857,0,0,0,431.4,82.482,335.071,335.071,0,0,0,408.231,37.53c-.253-.507.38-.886.76-.38a312.867,312.867,0,0,1,37.1,82.307c.886,3.039,1.646,6.078,2.533,9.117a143.948,143.948,0,0,1,12.663-40.14c2.533-5.318,5.065-12.536,10.13-15.955,3.292-2.153,8.231-2.026,10.51,1.52,0,0,0,.127-.127,0a6.681,6.681,0,0,0-7.6-2.153c-3.039,1.013-5.192,3.8-6.838,6.458a102.583,102.583,0,0,0-7.724,16.968,239.233,239.233,0,0,0-9.877,35.329c-.127.253,1.52,9.5,2.533,14.055.886,2.279,1.9,7.851,1.52,7.977,2.153,12.156,4.685,40.14,4.685,41.153.127-.253.127-.38.253-.633a.989.989,0,0,1,.506-.507c7.344-10.89,9.244-23.552,12.029-36.215,2.279-10.13,5.825-25.2,16.715-29.5a.124.124,0,0,1,.127.127c-10.89,7.724-13.549,21.526-15.955,33.809-2.279,11.776-4.432,24.565-12.283,33.936-.38.38-.886,9.624-.886,14.435s0,14.182.253,14.182c9.5.253,14.942-8.484,19.754-15.448,4.179-6.078,9.244-12.029,16.968-13.042.127,0,.253.253,0,.253-17.221,3.039-17.854,30.643-36.848,30.137-.253,0-2.406,22.919-4.305,34.442-.127.507-1.013.38-1.013-.127a329.8,329.8,0,0,0,3.166-35.329c-8.99-2.659-15.068-11.016-19.88-18.614-5.445-8.737-10-17.6-18.487-23.806-.253-.127,0-.38.253-.253,7.851,4.305,12.916,12.409,17.6,19.754,5.445,8.611,11.016,16.841,20.64,21.02.38-10.763.253-21.4-.38-32.163-5.192-1.9-9.117-7.6-11.65-12.283-3.166-5.951-4.812-12.409-7.218-18.614-2.659-6.964-6.458-13.3-12.789-17.474a31.594,31.594,0,0,0-20.007-4.938c-.127,0-.127-.253,0-.253A30.83,30.83,0,0,1,436.6,152.76c3.419,6.331,5.192,13.3,7.977,19.88a40.113,40.113,0,0,0,5.445,9.624,26.929,26.929,0,0,0,6.458,5.572c-.38-6.078-1.013-12.283-1.773-18.361q-1.33-10.637-3.419-21.273a101.786,101.786,0,0,0-6.458-14.182,95.242,95.242,0,0,0-11.65-16.588,103.8,103.8,0,0,0-31.15-24.819A100.713,100.713,0,0,0,380.5,84.382C380.753,84.635,380.753,84.255,381.006,84.382Z" transform="translate(-334.725 9.85)"/></g><g transform="translate(0 129.846)"><path class="k" d="M283.659,114.847a112.78,112.78,0,0,1,23.046-6.2c3.8-.633,7.977-.633,11.65-1.646a31.492,31.492,0,0,1,12.409-1.266,139.231,139.231,0,0,1,23.932,4.179c4.052,1.013,7.977,2.279,11.9,3.672,4.812,1.646,9.877,2.912,11.4,8.357a7.339,7.339,0,0,1-3.039,8.1c-4.432,2.659-7.851,1.013-12.156-.506-3.672-1.266-7.471-2.533-11.27-3.546a194.308,194.308,0,0,0-22.413-4.305,55.868,55.868,0,0,1-11.016-2.659c-3.292-1.14-7.091-1.14-10.51-1.393-7.851-.633-15.575-.506-23.426-.38A1.252,1.252,0,0,1,283.659,114.847Z" transform="translate(-282.901 -101.711)"/><path class="l" d="M327.6,163.038c.38-2.786-.38-5.445.76-8.1a17.907,17.907,0,0,1,4.305-5.951c4.305-4.305,10.13-7.218,15.828-9.244,10.637-3.672,24.692-5.825,35.582-1.9,3.672,1.393,5.825,3.8,6.2,7.724.38,3.292-1.9,6.2-4.812,7.471-3.546,1.646-6.838-.127-10.383-.506a44.991,44.991,0,0,0-14.815.886c-5.7,1.266-11.4,2.406-17.221,3.292-4.305.633-12.916,2.026-14.689,6.585A.417.417,0,0,1,327.6,163.038Z" transform="translate(-271 -93.681)"/><path class="m" d="M384.925,106.418c9.117-6.964,22.539-3.546,31.53,2.153.38.253.38.76-.127.886-3.8.76-7.724.633-11.4,1.773a24.2,24.2,0,0,0-9.244,5.318c-5.065,4.559-2.406,11.27-.38,16.841,1.52,4.179-1.393,8.99-5.445,10.257-4.559,1.393-8.484-1.393-10.257-5.445C375.175,127.312,375.049,113.889,384.925,106.418Z" transform="translate(-257.922 -102.526)"/><path class="n" d="M361.5,187.95c0-4.812-.127-9.117,1.646-13.676a26.715,26.715,0,0,1,9.624-12.156c9.37-6.331,24.565-6.711,33.429.38,6.458,5.192,0,15.068-7.344,13.549-3.166-.633-6.078-2.153-9.37-2.279a27.879,27.879,0,0,0-10.13,1.646c-6.078,2.026-13.549,6.458-15.828,12.789A1.028,1.028,0,0,1,361.5,187.95Z" transform="translate(-261.974 -87.949)"/><path class="o" d="M405.456,136.077a16.438,16.438,0,0,1,9.37-8.357c3.926-1.266,6.964-.127,10.763.633.76.127.886,1.52,0,1.646-4.179.76-7.6,8.231-8.1,12.029-.886,5.318,1.773,10.51,4.685,14.689,6.078,8.357-8.1,17.474-13.675,8.611C403.05,156.337,400.518,145.7,405.456,136.077Z" transform="translate(-250.974 -95.97)"/><path class="p" d="M382.708,193.419c1.9-6.838,6.078-10.13,13.169-11.143,7.977-1.14,15.575.633,23.3,2.279,10.383,2.279,6.458,18.614-3.925,15.955-5.7-1.52-11.143-3.419-16.715-5.192-3.672-1.14-10.51-2.659-14.182-.76C383.468,194.939,382.455,194.432,382.708,193.419Z" transform="translate(-256.337 -81.388)"/><path class="q" d="M430.93,179.669c1.9-1.773,2.279-4.179,2.659-6.838.633-4.052,1.266-8.357,3.545-11.9a15.213,15.213,0,0,1,7.218-6.331c3.292-1.519,5.318-1.013,8.484.253a1.055,1.055,0,0,1,0,2.026c-5.445,2.026-3.039,12.283-3.166,16.335-.38,6.585-2.026,13.422-7.091,18.107C434.982,198.41,423.206,187.013,430.93,179.669Z" transform="translate(-244.159 -88.911)"/><path class="j" d="M340.365,158.544a81.061,81.061,0,0,1,63.819,2.912c2.026,1.013,4.052,2.026,6.078,3.166a265.551,265.551,0,0,0-36.595-29.63,278.858,278.858,0,0,0-35.329-20.133c-.38-.127-.127-.76.253-.633a254.74,254.74,0,0,1,61.287,39.127c1.9,1.646,3.8,3.292,5.7,5.065a113.11,113.11,0,0,1-9.117-32.669c-.633-4.685-2.153-10.637-.127-15.2,1.266-2.912,4.685-4.938,7.724-3.672v.127a5.407,5.407,0,0,0-6.078,1.9c-1.646,2.026-1.9,4.812-1.773,7.344a83.827,83.827,0,0,0,2.279,14.815,195.868,195.868,0,0,0,8.864,28.111c.127.253,5.192,5.7,7.851,8.357,1.646,1.14,4.685,4.432,4.559,4.685,6.838,7.218,20.767,24.945,21.273,25.705a.761.761,0,0,0-.127-.507c0-.253,0-.38.127-.506.127-10.637-4.179-20.007-7.851-29.757-2.912-7.851-7.091-19.5-1.646-27.224,0-.127.127,0,.127,0-3.925,10,.38,20.513,4.052,29.884,3.546,8.99,7.851,18.487,6.585,28.364a95.129,95.129,0,0,0,5.7,10.13c2.153,3.166,6.2,9.5,6.458,9.37,6.458-4.052,6.331-12.409,6.585-19.12.127-5.951.887-12.156,5.7-16.208.127-.127.253,0,.127.127-10.257,9.624,1.393,28.491-11.523,36.468-.127.127,8.484,16.461,12.156,25.072.127.38-.506.76-.76.38-4.052-8.611-8.484-17.094-13.3-25.2-7.218,2.153-15.068-.76-21.526-3.8-7.6-3.419-14.435-7.471-22.919-7.977-.127,0-.253-.253,0-.253,7.091-.507,14.182,2.659,20.513,5.571,7.471,3.419,14.815,6.458,23.173,5.065-4.432-7.344-9.244-14.562-14.435-21.526-4.305,1.013-9.5-1.14-13.169-3.166-4.685-2.659-8.737-6.331-13.042-9.37-4.812-3.546-10.13-6.078-16.335-6.2a24.809,24.809,0,0,0-15.575,5.445c-.127.127-.253-.127-.127-.127a24.706,24.706,0,0,1,28.238-3.039c5.065,2.786,9.37,6.711,14.182,9.877a29.6,29.6,0,0,0,7.977,4.052,21.171,21.171,0,0,0,6.838.886c-3.039-3.925-6.078-7.851-9.244-11.65-3.8-4.432-7.6-8.737-11.65-12.916a101.62,101.62,0,0,0-10.637-6.838,79.309,79.309,0,0,0-15.2-6.078,84.917,84.917,0,0,0-31.91-3.039,79.641,79.641,0,0,0-18.107,3.925C340.239,158.924,340.112,158.544,340.365,158.544Z" transform="translate(-268.191 -101.469)"/></g><g transform="translate(185.109 269.481)"><path class="r" d="M457.341,212.8H430.623a1.58,1.58,0,0,0-1.519,1.9L430.116,219a1.52,1.52,0,0,0,1.519,1.14h24.692a1.636,1.636,0,0,0,1.52-1.14l1.013-4.305A1.65,1.65,0,0,0,457.341,212.8Z" transform="translate(-429.087 -212.8)"/><path class="s" d="M431.3,219.2l2.153,14.942a2.047,2.047,0,0,0,2.026,1.773h15.7a2.047,2.047,0,0,0,2.026-1.773l2.153-14.942Z" transform="translate(-428.498 -211.096)"/></g></g><g transform="translate(-0.02 50.248)"><ellipse class="t" cx="30.39" cy="7.344" rx="30.39" ry="7.344" transform="translate(32.695 236.437)"/><path class="u" d="M.892,171.143c-1.14-5.318-1.646-10.89,1.14-15.828A10.149,10.149,0,0,1,7.35,150.63c7.218-2.912,13.676,3.546,17.348,9.75,2.786,4.812,5.065,10,9.877,13.169a11.162,11.162,0,0,0,6.2,1.9c8.1-.253,10.383-9.37,7.724-15.575-2.153-5.192-6.838-9.117-10.89-13.169a88.554,88.554,0,0,1-22.539-38.241c-2.533-9.117-3.546-19.5,3.419-26.845,3.672-3.8,9.244-5.445,14.055-3.419,5.951,2.406,7.091,8.231,8.1,13.549.76,4.432,1.773,9.244,5.7,12.029,2.533,1.773,5.951,2.026,8.231.127,2.279-2.026,2.026-4.938,1.9-7.724A66.316,66.316,0,0,1,72.942,48.949c6.2-6.964,16.841-12.916,24.439-6.585a14.01,14.01,0,0,1,4.052,6.331c1.773,5.825.38,11.65-.886,17.348L93.2,97.067a3.338,3.338,0,0,0,5.192,3.419l21.653-14.815a14.473,14.473,0,0,1,6.838-2.533c7.977-.506,10.257,6.331,10.383,12.283.253,12.916-6.711,25.2-15.955,34.442s-20.64,15.828-31.783,22.666c-3.419,2.153-7.091,4.432-8.357,8.484a6.13,6.13,0,0,0,1.646,6.585c3.039,2.659,7.471.886,10.637-1.266,10-6.585,18.234-15.828,30.39-18.614a21.423,21.423,0,0,1,12.916.886c12.789,5.192,12.029,18.741,6.078,27.478-6.331,9.244-15.828,15.2-24.819,21.526C99.913,210.4,74.841,233.443,50.529,226.1c-14.309-4.305-26.845-15.068-35.835-26.465A72.809,72.809,0,0,1,.892,171.143Z" transform="translate(0.02 -39.679)"/><g transform="translate(17.45 44.979)"><g transform="translate(45.852)"><path class="v" d="M52.54,248.93a.6.6,0,0,1-.633-.633A651.263,651.263,0,0,1,61.531,75.706a.646.646,0,0,1,1.266.253,648.419,648.419,0,0,0-9.624,172.211.709.709,0,0,1-.633.76Z" transform="translate(-49.971 -75.2)"/></g><g transform="translate(9.626 11.222)"><path class="v" d="M62.563,125.77a31.526,31.526,0,0,1-11.523-2.026c-9.117-3.419-15.322-10.763-18.994-16.208C27.361,100.445,24.2,92.214,21.41,84.87a.6.6,0,0,1,1.14-.38c2.786,7.218,5.825,15.322,10.51,22.413,3.546,5.318,9.5,12.409,18.361,15.828,10.89,4.179,24.945,1.52,36.721-6.838,10.763-7.6,18.614-18.487,26.085-28.871a.633.633,0,1,1,1.013.76c-7.6,10.51-15.448,21.4-26.338,29.124A46.008,46.008,0,0,1,62.563,125.77Z" transform="translate(-21.362 -84.062)"/></g><g transform="translate(0 80.977)"><path class="v" d="M57.37,181.253a39.351,39.351,0,0,1-12.156-1.9c-15.575-5.192-25.452-20.133-31.4-30.9a.839.839,0,0,1,.253-.886.839.839,0,0,1,.886.253c5.951,10.637,15.575,25.325,30.77,30.264,12.916,4.305,28.744,1.013,42.293-8.864l2.659-1.9c11.523-8.357,22.413-16.335,33.809-27.984a.627.627,0,1,1,.886.886c-11.4,11.776-22.413,19.754-33.936,28.111l-2.533,1.9C78.9,177.454,67.753,181.253,57.37,181.253Z" transform="translate(-13.761 -139.15)"/></g></g><g transform="translate(50.54 122.154)"><path class="w" d="M39.9,188.13c.127-2.659.506-5.318,2.406-7.344a4.849,4.849,0,0,1,3.039-1.646c3.672-.507,5.951,3.166,6.964,6.585.76,2.533,1.266,5.318,3.166,7.344a5.886,5.886,0,0,0,2.659,1.646c3.8.886,5.951-3.166,5.445-6.458-.38-2.786-2.153-5.065-3.546-7.471a42.543,42.543,0,0,1-6.078-20.64c-.127-4.559.633-9.624,4.685-12.283a6.1,6.1,0,0,1,6.964,0c2.533,1.773,2.406,4.685,2.279,7.344-.127,2.153-.253,4.559,1.266,6.331a3.227,3.227,0,0,0,3.8,1.013c1.266-.633,1.52-2.153,1.773-3.419a32.912,32.912,0,0,1,13.042-20.387c3.672-2.533,9.37-4.179,12.156-.253a5.556,5.556,0,0,1,1.14,3.419c.127,2.912-1.14,5.572-2.406,8.1l-6.964,13.929a1.656,1.656,0,0,0,2.026,2.279l11.9-4.559a6.385,6.385,0,0,1,3.419-.38c3.8.633,4.052,4.179,3.419,6.964-1.393,6.2-6.078,11.143-11.523,14.435s-11.523,5.065-17.6,7.091c-1.9.633-3.8,1.266-4.938,3.039a3.091,3.091,0,0,0,0,3.292c1.14,1.646,3.419,1.266,5.192.633,5.445-1.9,10.383-5.318,16.335-5.318a9.817,9.817,0,0,1,5.951,1.9c5.318,3.925,3.419,10.257-.38,13.676-4.052,3.546-9.244,5.318-14.182,7.344-10,3.925-24.439,11.9-34.949,5.7-6.2-3.672-10.763-10.257-13.676-16.588A42.592,42.592,0,0,1,39.9,188.13Z" transform="translate(-39.892 -136.147)"/><g transform="translate(7.068 19.06)"><g transform="translate(12.696 0.375)"><path class="v" d="M56.133,233.175h0c-.507-.127-.633-.38-.633-.76a323.915,323.915,0,0,1,24.565-80.534.652.652,0,1,1,1.14.633A320.447,320.447,0,0,0,56.64,232.795.565.565,0,0,1,56.133,233.175Z" transform="translate(-55.5 -151.496)"/></g><g transform="translate(13.582)"><path class="v" d="M75.7,176.9a17.553,17.553,0,0,1-10-2.912,20.187,20.187,0,0,1-7.091-10A59.554,59.554,0,0,1,56.2,151.96a.646.646,0,0,1,1.266-.253,68.818,68.818,0,0,0,2.279,11.776,19.414,19.414,0,0,0,6.585,9.37c4.559,3.166,11.27,3.546,17.728,1.013,5.825-2.279,10.763-6.585,15.448-10.637a.633.633,0,0,1,.76,1.013c-4.812,4.179-9.75,8.357-15.828,10.763A21.312,21.312,0,0,1,75.7,176.9Z" transform="translate(-56.2 -151.2)"/></g><g transform="translate(0 35.802)"><path class="v" d="M67.666,201.793a19.562,19.562,0,0,1-10.89-3.039c-6.711-4.305-9.624-12.536-11.27-18.487-.127-.38.127-.633.507-.76s.633.127.76.506c1.52,5.7,4.305,13.676,10.763,17.728,5.445,3.419,13.169,3.672,20.513.633l1.393-.633c6.331-2.659,12.409-5.065,18.994-9.244a.652.652,0,1,1,.633,1.14c-6.711,4.305-12.789,6.711-19.247,9.37l-1.393.633A29.649,29.649,0,0,1,67.666,201.793Z" transform="translate(-45.474 -179.474)"/></g></g></g><g transform="translate(12.27 160.179)"><path class="x" d="M63.017,193.3c-.507-1.773-1.14-3.546-2.786-4.685a3.017,3.017,0,0,0-2.279-.633c-2.659.253-3.546,3.166-3.8,5.572-.127,1.9,0,3.8-1.013,5.572a3.848,3.848,0,0,1-1.646,1.519c-2.533,1.14-4.559-1.266-4.685-3.545a14.3,14.3,0,0,1,1.266-5.572,28.974,28.974,0,0,0,1.013-15.068c-.633-3.166-1.9-6.458-5.065-7.724a4.524,4.524,0,0,0-4.812,1.013c-1.393,1.646-.886,3.546-.38,5.318.38,1.52.886,3.039.127,4.559a2.378,2.378,0,0,1-2.533,1.266c-1.013-.253-1.393-1.266-1.773-2.026a22.579,22.579,0,0,0-12.029-11.9c-2.912-1.14-6.964-1.393-8.357,1.646a4.275,4.275,0,0,0-.253,2.533,11.762,11.762,0,0,0,2.912,5.192l6.838,8.357a1.177,1.177,0,0,1-1.013,1.9l-8.737-1.266a5.234,5.234,0,0,0-2.406.253c-2.533,1.013-2.153,3.546-1.266,5.318,1.9,3.925,5.825,6.711,10,8.1s8.611,1.773,13.042,2.153c1.393.127,2.786.253,3.8,1.393a2.507,2.507,0,0,1,.507,2.279c-.507,1.266-2.153,1.393-3.419,1.266-4.052-.506-7.851-2.153-12.029-1.14a8.748,8.748,0,0,0-3.8,2.153c-3.039,3.419-.76,7.471,2.279,9.244,3.292,1.9,7.091,2.279,10.763,2.912,7.344,1.14,18.487,4.432,24.692-1.393,3.672-3.419,5.825-8.611,6.838-13.422A23.665,23.665,0,0,0,63.017,193.3Z" transform="translate(-9.67 -166.177)"/><g transform="translate(5.813 7.753)"><g transform="translate(11.435 3.661)"><path class="v" d="M52.933,227.625a.7.7,0,0,1-.633-.38,222.746,222.746,0,0,0-28.871-51.03.633.633,0,0,1,1.013-.76,220.235,220.235,0,0,1,29,51.283c.127.38,0,.633-.38.886Z" transform="translate(-23.291 -175.191)"/></g><path class="v" d="M30.012,193.446a22.607,22.607,0,0,1-2.912-.253c-4.559-.76-8.611-2.912-12.536-4.938a.652.652,0,1,1,.633-1.14c3.8,2.026,7.851,4.179,12.156,4.812,4.685.76,9.117-.507,11.776-3.292a13.474,13.474,0,0,0,3.039-7.344,36.717,36.717,0,0,0-.253-8.357.573.573,0,0,1,1.14-.127,48.224,48.224,0,0,1,.253,8.611,13.3,13.3,0,0,1-3.419,7.977A12.878,12.878,0,0,1,30.012,193.446Z" transform="translate(-14.261 -172.3)"/><g transform="translate(7.726 22.286)"><path class="v" d="M40.037,209.274a18.083,18.083,0,0,1-3.672-.38l-1.013-.127a86.662,86.662,0,0,1-14.562-3.546.6.6,0,0,1,.38-1.14A72.893,72.893,0,0,0,35.478,207.5l1.013.127c5.445,1.013,10.637-.38,13.8-3.546,3.672-3.672,4.432-9.5,4.559-13.549a.678.678,0,0,1,.633-.633.6.6,0,0,1,.633.633c-.253,4.305-.886,10.383-4.938,14.435A15.277,15.277,0,0,1,40.037,209.274Z" transform="translate(-20.362 -189.9)"/></g></g></g><g transform="translate(48.76 218.456)"><path class="r" d="M66.741,212.2H40.023a1.58,1.58,0,0,0-1.52,1.9l1.013,4.305a1.52,1.52,0,0,0,1.52,1.14H65.728a1.636,1.636,0,0,0,1.519-1.14L68.26,214.1A1.52,1.52,0,0,0,66.741,212.2Z" transform="translate(-38.487 -212.2)"/><path class="y" d="M40.8,218.6l2.153,14.942a2.047,2.047,0,0,0,2.026,1.773H60.554a2.047,2.047,0,0,0,2.026-1.773L64.732,218.6Z" transform="translate(-37.872 -210.496)"/></g></g><g transform="translate(74.588 26.313)"><ellipse class="z" cx="64.452" cy="7.344" rx="64.452" ry="7.344" transform="translate(0 275.567)"/><g transform="translate(27.077)"><path class="aa" d="M119.652,28.4c4.432.127,6.2-4.812,9.877-6.331,5.825-2.279,13.929-1.773,18.234,3.292,1.14,1.393,2.026,3.925,3.672,4.938,2.533,1.52,5.065.633,7.344,3.166,5.065,5.951-2.912,13.8.38,20.64,2.279,4.559,8.737,3.419,12.156,6.585,3.546,3.292,4.812,7.851,2.659,12.156-.886,1.9-4.305,5.7-1.14,7.218a10.549,10.549,0,0,0,1.9.507c6.078,1.266,12.156,5.065,14.815,10.89,6.838,14.815-6.838,26.718-19.5,31.53a43.675,43.675,0,0,1-31.277-.633c-14.942-5.7-34.062-16.461-33.429-34.949.127-4.559,3.672-8.99,2.026-13.549-1.14-2.912-3.166-5.318-4.559-8.1a17.587,17.587,0,0,1-1.9-9.5,11.728,11.728,0,0,1,1.52-5.445c1.773-3.166,5.192-3.546,7.471-5.951a9.7,9.7,0,0,0,2.533-5.951c.127-2.279-1.14-4.559-.253-6.838C113.194,29.037,116.74,28.4,119.652,28.4Z" transform="translate(-74.805 -20.776)"/><path class="ab" d="M142.3,71.9l10.13,18.234-5.572,4.938L134.2,76.965Z" transform="translate(-65.928 -7.164)"/><path class="ac" d="M136.591,83.228c.633-.507,9.244-7.6,9.37-8.737-1.773-.506-.507-1.14-1.013-2.406-.38-.886-1.773-.633-1.519-1.9-1.14-.633-1.519-2.026-2.153-3.039a18.7,18.7,0,0,0-3.419-3.672,8.389,8.389,0,0,0-6.964-2.153c-2.279.38-4.052.886-5.192,3.039-1.393,2.659.507,5.825,2.279,8.357a25.888,25.888,0,0,0,2.659,3.546,1.993,1.993,0,0,1,.633,2.153c.38.253,1.013.253,1.266.507.506.507.253,1.14,1.013,1.266C133.679,80.949,135.831,83.355,136.591,83.228Z" transform="translate(-68.319 -10.009)"/><g transform="translate(6.986 119.565)"><path class="ad" d="M150.408,115.2c-14.942,5.318-27.731-.127-34.062,7.724-4.052,5.065-2.153,16.208-2.659,19.247-2.406,16.081,2.153,26.212,5.7,46.978-8.357,4.432-13.8,14.435-15.068,21.653a88.172,88.172,0,0,1-3.419,12.156c-2.406,7.218-5.572,14.942-7.6,19.627,2.026,1.14,3.419,2.153,6.078,2.153a144.436,144.436,0,0,1,10-18.234c6.2-9.877,13.042-19.754,17.221-29.63,8.1-8.357,16.715-38.241,18.994-49.637C147.243,138.372,148.762,125.963,150.408,115.2Z" transform="translate(-83.803 -115.2)"/><g transform="translate(0 127.639)"><path class="ae" d="M90.485,220.1,85.8,234.409l.76.38,5.192-10.763Z" transform="translate(-85.8 -214.908)"/><path class="af" d="M98.876,229.042c.127-4.052-.507-6.964.633-10.383-.127.127-.633.506-3.039-.507C93.3,216.886,93.558,216,93.558,216a3.807,3.807,0,0,1-1.52,1.393c1.393,6.711-2.153,13.169.127,20.133.886,3.039,3.039,2.406,5.7,2.026a9.5,9.5,0,0,0-.127-1.52C97.1,234.741,98.876,232.461,98.876,229.042Z" transform="translate(-84.314 -216)"/><path class="ag" d="M92.744,237.333c-2.279-7.091,1.14-13.422-.127-20.133-1.14.38-2.279.253-3.039,1.9-1.013,2.279.253,3.925,1.266,5.825,1.773,3.546.253,7.091,0,10.637-.253,2.533.507,3.419,2.279,5.192,1.646,1.646,2.786,1.646,5.445,2.659,2.406.886,3.672-.507,1.52-2.406-1.266-1.013-1.52-1.266-1.646-1.646C95.783,239.613,93.63,240.372,92.744,237.333Z" transform="translate(-84.893 -215.68)"/></g></g><g transform="translate(32.494 111.334)"><path class="ah" d="M134.632,113.892c-7.091.127-14.182-2.279-20.893-5.192-.253,1.393-13.042,12.409-5.318,34.7,4.938,20.007,11.523,38.874,13.8,54.956-5.951,7.344-7.218,18.614-5.572,25.832a75.306,75.306,0,0,1,1.52,12.536c.506,7.6.633,15.955.633,21.02,2.279.253,3.925.633,6.458-.38a150.419,150.419,0,0,1,2.153-20.64c1.9-11.523,4.305-23.3,4.432-34.062,4.179-10.89,4.812-59.641,5.572-67.871.886-8.99,3.925-3.166,7.724-11.27,1.773-3.8,2.153-10.637,2.153-12.409C143.623,113.132,139.317,113.765,134.632,113.892Z" transform="translate(-105.944 -108.7)"/><g transform="translate(10.201 149.672)"><path class="ai" d="M114.5,231.9l1.266,15.068h.76l.76-11.9Z" transform="translate(-113.867 -225.569)"/><path class="aj" d="M126.39,236.65c-1.52-3.8-3.166-6.2-3.419-9.75,0,.253-.38.633-3.039.76-3.419.127-3.546-.76-3.546-.76a2.93,2.93,0,0,1-.886,1.773c3.925,5.7,3.166,12.916,7.977,18.487,2.026,2.533,3.672,1.013,6.078-.38a5.219,5.219,0,0,0-.76-1.266C126.9,242.6,127.656,239.942,126.39,236.65Z" transform="translate(-113.601 -226.9)"/><path class="ak" d="M124,246.787c-4.812-5.572-4.179-12.789-7.977-18.487-.886.886-2.026,1.14-2.026,2.912,0,2.406,1.773,3.419,3.419,4.938,3.039,2.659,3.039,6.458,4.179,9.877.76,2.406,1.773,2.912,4.052,3.925,2.153.886,3.166.38,6.078.38,2.533-.127,3.166-1.9.507-2.786-1.646-.506-1.9-.506-2.153-.886C127.676,247.8,125.9,249.32,124,246.787Z" transform="translate(-114 -226.527)"/></g></g><path class="al" d="M121.531,103.222c.127,2.153-5.951,13.042-8.864,19.12,3.166,3.672,10.89,6.078,16.968,6.331,5.192.253,11.523.253,16.715-1.773l-2.406-31.277s11.27-3.419,6.078-12.029c-4.812-7.977-12.789-24.059-18.107-24.059a6.33,6.33,0,0,0-5.445-2.026c-6.2.507-9.117,2.533-12.029,7.6-2.659,4.432-5.572,11.016-4.052,16.081Z" transform="translate(-72.379 -11.008)"/><g transform="translate(49.015 20.67)"><path class="am" d="M122.619,48.8,121.1,60.323l15.575,21.906L131.23,64.375l1.266-8.864Z" transform="translate(-118.43 -33.985)"/><path class="an" d="M140.655,37.1a9.542,9.542,0,0,1-3.8,8.357c-2.279,1.773-9.37,4.305-13.042,1.646a.175.175,0,0,1,0-.253h-.127l.127-1.646a2.278,2.278,0,0,0-2.153-2.406h0a2.384,2.384,0,0,0-2.533,2.153L119,46.724a2.328,2.328,0,0,0,2.279,2.533,1.525,1.525,0,0,1,1.266,1.646l-.127,1.013c-.253,3.419,14.689,12.029,16.335,8.484a95.2,95.2,0,0,0,3.672-16.588,32.505,32.505,0,0,0-.127-6.078A8.79,8.79,0,0,1,140.655,37.1Z" transform="translate(-118.992 -37.1)"/></g><g transform="translate(68.892 43.449)"><path class="ao" d="M146.152,62.2l6.964,30.264c1.773,5.065-3.166,9.117-7.091,6.585a5.369,5.369,0,0,1-2.153-3.925c-.633-16.841-1.773-31.53-1.773-31.53Z" transform="translate(-132.716 -53.196)"/><path class="ap" d="M142.568,58.47a3.667,3.667,0,0,0-2.912-1.266,2.181,2.181,0,0,0-1.519,1.266A12.445,12.445,0,0,0,137.5,60.5c-.253,1.266,3.166,5.445,5.825,4.305.76-.38,3.925-.38,4.052-1.266A43.743,43.743,0,0,0,142.568,58.47Z" transform="translate(-133.944 -54.531)"/><path class="ap" d="M142.807,59.535c0-1.646-8.231-5.192-8.1-4.305-.253.76,3.166,2.279,3.672,2.533C139.768,58.775,140.781,60.674,142.807,59.535Z" transform="translate(-134.689 -55.089)"/><path class="ap" d="M142.666,58.975c-.633-1.393-5.192-1.646-6.585-.886A2.492,2.492,0,0,0,135.448,61c.886-.127.507-1.14,1.013-1.52.38-.38.886-.127,1.52-.127C139.5,59.608,141.273,61,142.666,58.975Z" transform="translate(-134.549 -54.403)"/><path class="ap" d="M143.392,61.446c-.253-1.52-4.685-2.912-6.2-2.533a2.308,2.308,0,0,0-1.266,2.659c.886.127.76-.886,1.393-1.266.506-.253.886,0,1.519.253C140.226,61.193,141.619,62.965,143.392,61.446Z" transform="translate(-134.388 -54.088)"/><path class="ap" d="M142.186,61.84c-.253-1.14-3.546-1.9-4.685-1.52a1.871,1.871,0,0,0-.886,2.026c.633,0,.506-.76.886-1.013s.633,0,1.14.127C139.78,61.84,140.919,63.107,142.186,61.84Z" transform="translate(-134.195 -53.723)"/></g><g transform="translate(0 50.547)"><g transform="translate(0 10.643)"><path class="aq" d="M93.98,97.338l20.387,26.338-3.546,2.406-29.5-25.072a2.407,2.407,0,0,1-.633-3.292L112.847,69.1l8.484,9.244Z" transform="translate(-80.283 -69.1)"/><path class="ap" d="M114.279,113.362a3.744,3.744,0,0,1,2.659,1.646,2.328,2.328,0,0,1-.253,2.026,8.717,8.717,0,0,1-1.393,1.646c-.886.886-10.383-1.266-10.89-4.179-.127-.886.76-1.013,1.393-1.646C107.948,111.21,111.62,112.729,114.279,113.362Z" transform="translate(-73.865 -57.647)"/><path class="ap" d="M113.86,113.8c1.52.38,2.533,4.812,2.026,6.331a2.4,2.4,0,0,1-2.786,1.14c0-.886,1.013-.76,1.393-1.266s0-.886-.127-1.52C113.86,116.966,112.214,115.573,113.86,113.8Z" transform="translate(-71.546 -57.198)"/><path class="ap" d="M112.26,114c1.519.38,2.533,4.812,2.026,6.331a2.4,2.4,0,0,1-2.786,1.14c0-.886,1.013-.76,1.393-1.266s0-.886-.127-1.52C112.26,117.292,110.614,115.773,112.26,114Z" transform="translate(-71.972 -57.145)"/><path class="ap" d="M111.068,114.3c1.52.38,2.533,4.812,2.026,6.331a2.4,2.4,0,0,1-2.786,1.14c0-.886,1.013-.76,1.393-1.266s0-.886-.127-1.52C110.941,117.466,109.295,115.946,111.068,114.3Z" transform="translate(-72.299 -57.065)"/><path class="ap" d="M110.216,115.1c1.14.253,1.9,3.546,1.519,4.685a1.645,1.645,0,0,1-2.026.76c0-.633.76-.507,1.013-.886s0-.633-.127-1.14C110.216,117.506,108.949,116.366,110.216,115.1Z" transform="translate(-72.46 -56.852)"/></g><path class="ar" d="M105.448,71.591c.633.633,1.646,2.026,2.406,2.786,1.393,1.393,2.786,2.659,4.052,4.052.633.76,2.279,3.419,3.292,3.419,0-1.773,1.013-.633,1.9-1.266.76-.507,0-1.773,1.393-1.646.253-1.14,1.52-1.646,2.279-2.406a11.526,11.526,0,0,0,2.406-3.672,7.781,7.781,0,0,0,0-7.091c-1.013-2.279-2.026-3.925-4.559-4.812-3.039-1.013-5.445,1.14-7.471,2.912a30.453,30.453,0,0,0-2.659,3.039c-.633.76-.76.886-1.773.886-.127.38,0,1.013-.127,1.393-.253.507-1.013.38-1.013,1.14C105.195,70.325,105.068,70.831,105.448,71.591Z" transform="translate(-73.644 -60.695)"/></g></g></g><g transform="translate(183.486 57.107)"><ellipse class="as" cx="126.119" cy="7.344" rx="126.119" ry="7.344" transform="translate(0 254.903)"/><g transform="translate(80.914)"><g transform="translate(53.209 46.312)"><path class="at" d="M292.5,114.007a5.183,5.183,0,0,1-2.406-.38L262.739,95.9,259.7,99.066s30.39,29.63,33.429,30.264c1.14.253,11.4-10.763,19.5-22.539a96.15,96.15,0,0,0-12.789-8.864C298.194,101.978,293,113.754,292.5,114.007Z" transform="translate(-248.457 -77.88)"/><path class="au" d="M313.5,85.38c-5.065-6.711-14.815-4.179-17.728,6.458,0,.127-5.318,9.5-5.572,10a95.851,95.851,0,0,1,14.309,10.383C311.6,102.095,316.918,89.939,313.5,85.38Z" transform="translate(-240.336 -81.669)"/><path class="av" d="M257.025,93.344c-1.14-.253-2.406-.38-3.166.253a2.876,2.876,0,0,0-.76,2.026,5.964,5.964,0,0,0,.507,2.153c.38,1.266,10.257,3.8,12.156,1.393.506-.76-.127-1.266-.507-2.153C264.116,94.357,259.938,93.977,257.025,93.344Z" transform="translate(-250.214 -78.616)"/><path class="aw" d="M257.5,94.055c-1.266-1.013-5.7,1.14-6.458,2.406a2.411,2.411,0,0,0,.886,2.912c.633-.507,0-1.266.127-1.9.127-.506.76-.633,1.266-.76C254.968,96.208,257.247,96.588,257.5,94.055Z" transform="translate(-250.815 -78.442)"/><path class="ax" d="M258.645,94.549c-.633-1.519-5.318-2.026-6.838-1.393-.886.38-1.266,2.153-.76,3.039.886-.127.633-1.14,1.14-1.52.38-.38,1.013-.127,1.52,0C255.353,94.929,257.126,96.448,258.645,94.549Z" transform="translate(-250.821 -78.682)"/><path class="ay" d="M259.434,95.73c-1.013-1.266-5.7-.38-6.838.76a2.476,2.476,0,0,0,.127,3.039c.76-.38.253-1.266.633-1.9.253-.506.886-.38,1.519-.506C256.4,97.123,258.548,98.136,259.434,95.73Z" transform="translate(-250.471 -78.091)"/><path class="az" d="M258.523,96.677c-.886-.886-4.305,0-5.065.886a1.909,1.909,0,0,0,.253,2.279c.633-.253.127-.886.38-1.393.127-.38.633-.38,1.013-.38C256.37,97.817,258.017,98.45,258.523,96.677Z" transform="translate(-250.192 -77.771)"/><path class="ba" d="M260.091,94.466c-.633,1.52-5.318-1.013-6.458-1.266-.886,1.266,2.279,2.406,2.912,2.912.76.633.886,1.9,1.773,2.533a2.86,2.86,0,0,0,2.659.253,2.189,2.189,0,0,1,1.266-.127" transform="translate(-250.114 -78.599)"/></g><g transform="translate(19.754 49.896)"><g transform="translate(27.731 36.088)"><g class="bb"><rect class="bc" width="17.854" height="19.627"/></g></g><g transform="translate(22.159 43.939)"><rect class="bd" width="11.27" height="0.76" transform="translate(0 11.396)"/><path class="be" d="M262.729,128.57l-4.812-9.117c-.127-.253-.38-.253-.633-.253-.253.127-.38.38-.253.507l4.812,9.117a.964.964,0,0,1-.127,1.14,1.468,1.468,0,0,1-1.266.507H250.7v.76h9.75a2.552,2.552,0,0,0,2.026-.886A1.362,1.362,0,0,0,262.729,128.57Z" transform="translate(-239.557 -119.2)"/></g><path class="bf" d="M277.5,128.819h0L282.312,84.5h0a.9.9,0,0,1,.886,1.013l-4.559,42.293A1.2,1.2,0,0,1,277.5,128.819Z" transform="translate(-210.262 -84.5)"/><path class="bg" d="M291.638,128.819H224.4L229.212,84.5H296.45Z" transform="translate(-224.4 -84.5)"/><path class="bh" d="M290.506,123.688H225.8L229.979,85.7h64.706Z" transform="translate(-224.027 -84.18)"/></g><path class="r" d="M312.886,128.8H210.193a1.393,1.393,0,1,0,0,2.786h22.413V285.563a1.393,1.393,0,1,0,2.786,0V131.712h51.157V285.689a1.393,1.393,0,0,0,2.786,0V131.712h23.552a1.405,1.405,0,0,0,1.393-1.393A1.437,1.437,0,0,0,312.886,128.8Z" transform="translate(-208.8 -22.809)"/><g transform="translate(67.08)"><g transform="translate(12.263 133.595)"><path class="bi" d="M301.774,150.727c-1.266,1.14-2.532,2.279-3.419,3.166-3.419,3.8-18.994,26.591-26.591,41.786-.886,1.773.253,6.838,2.279,7.218,7.091,1.52,35.835,8.611,37.861,7.724h.38a2.842,2.842,0,0,1,1.9,1.013h.253a9.106,9.106,0,0,0,2.279-.127,33.4,33.4,0,0,0,2.026-6.2l-.253-.253a2.392,2.392,0,0,0-2.533-1.773h-.38a2.125,2.125,0,0,1-2.912.507c-.127-.127-.253-.127-.38-.253-1.9-.76-3.672-2.026-5.318-2.153a.465.465,0,0,1-.38-.127c-6.2-5.572-14.942-8.357-14.942-8.357-.886-3.419,38.494-23.806,44.826-31.91,2.279-2.786,2.912-6.458,2.279-10.383H301.774Z" transform="translate(-271.46 -150.6)"/><path class="bj" d="M310.939,213.646c-.633-.38-.38-.886,0-1.393-.127,0-.127,0-.253-.127a.87.87,0,0,1-.38-1.14c.886-2.786-1.013-9.244-2.026-9.877-.127-.127-.253-.127-.38-.253.633-2.279,1.14-4.559,1.773-6.838,2.406-.253,6.2-1.14,7.218,0a10.748,10.748,0,0,1,1.773,5.7c-.253,2.912-.507,5.951-.633,8.864-.127,1.9.886,4.559.127,6.2-.633,1.393-7.344,5.951-9.117,5.445C306.254,219.6,310.559,214.786,310.939,213.646Z" transform="translate(-261.757 -139.19)"/></g><g transform="translate(34.854 142.333)"><path class="r" d="M332.54,168.7H293.666a1.249,1.249,0,0,0-1.266,1.14,1.169,1.169,0,0,0,1.266,1.14h16.968V207.7h2.406V170.979h19.374a1.249,1.249,0,0,0,1.266-1.14C333.807,169.206,333.3,168.7,332.54,168.7Z" transform="translate(-288.475 -154.518)"/><rect class="r" width="5.065" height="3.799" transform="translate(20.893 54.196)"/><path class="r" d="M326.963,241.455H313.92V204.1h-5.065v37.355H295.813a1.013,1.013,0,1,0,0,2.026h13.042v17.728h5.065V243.481h13.042a1,1,0,0,0,1.013-1.013C327.849,241.834,327.469,241.455,326.963,241.455Z" transform="translate(-287.836 -145.092)"/><path class="r" d="M309.208,249.9,293,253.192h37.481L314.273,249.9Z" transform="translate(-288.315 -132.898)"/><path class="bj" d="M332.1,171.682H295.5a6.215,6.215,0,0,1-6.2-6.2V163.7a6.215,6.215,0,0,1,6.2-6.2H332.1a6.215,6.215,0,0,1,6.2,6.2v1.773A6.215,6.215,0,0,1,332.1,171.682Z" transform="translate(-289.3 -157.5)"/></g><g transform="translate(0 117.498)"><path class="bk" d="M306,151.832c3.166-2.912,2.279-8.1,1.773-12.789a1.007,1.007,0,0,1,1.14-1.14l29,1.266a1.282,1.282,0,0,1,.886.507c7.344,11.4,6.585,18.361.253,24.945-7.091,7.344-52.17,24.819-56.1,30.77,8.737,2.279,15.828,16.715,24.186,29.377,0,.127.127.127.127.253.253,2.279,2.659,2.406,3.925,4.052a.465.465,0,0,1,.127.38c.253.886,0,2.026.507,2.406,0,.127.127.127.127.253.253.38.507.633.76,1.013a1.372,1.372,0,0,1,0,1.393c-1.646,1.9-2.406,2.912-4.305,4.938l-.507-.506-.253-.253c-2.406.38-2.659-.633-2.912-2.026a9.19,9.19,0,0,0-.633-1.14h0c-2.786.253-2.026-1.013-3.166-2.912-.127-.127-.253-.253-.38-.253-10.89-9.877-29.884-27.478-37.355-35.075a4.815,4.815,0,0,1,0-6.838C275.609,177.284,302.2,155.124,306,151.832Z" transform="translate(-261.775 -137.887)"/><path class="bj" d="M298.623,232.887c-.38-.633,0-1.013.507-1.266l-.127-.127a1.15,1.15,0,0,1,0-1.266c1.9-2.153,2.532-8.864,1.773-9.877-.127-.127-.127-.253-.253-.38,1.393-1.9,2.786-3.8,4.179-5.572,2.406.76,6.2,1.393,6.585,2.786a10.492,10.492,0,0,1-.507,5.951c-1.393,2.659-2.659,5.318-3.925,7.977-.76,1.773-.886,4.558-2.153,5.825-1.14,1.14-8.99,2.659-10.51,1.52C292.165,236.559,297.863,233.774,298.623,232.887Z" transform="translate(-253.259 -117.515)"/></g><path class="bl" d="M309.688,77.2c13.549,0,25.832,10.89,27.6,24.439l-3.8,52.8c-.127,1.393.127,2.786-.253,4.052-.887,3.672-6.458,4.559-9.5,4.812-7.218.76-15.448.76-22.159-2.406-2.912-1.393-2.786-2.406-3.039-5.7l-3.8-49.637C293.226,95.307,299.811,83.785,309.688,77.2Z" transform="translate(-253.054 -36.548)"/><path class="bm" d="M322.663,58.27a6.434,6.434,0,0,0-3.039-3.039c-1.013-.506-2.279-.38-3.166-1.266-1.013-1.013-1.266-2.153-2.786-2.786a13.5,13.5,0,0,0-3.925-.76c-2.279-.253-4.812-.38-6.711-1.9-1.773-1.393-3.292-3.546-5.951-3.419-7.471.253-8.611,13.422-3.292,16.968l3.292,2.279h.38a10.329,10.329,0,0,1,0-3.419.272.272,0,0,1,.253-.253c2.026-.253,3.925-.506,5.951-.633a16.357,16.357,0,0,1,4.305.127,1.361,1.361,0,0,1,1.14,1.013c.38,1.14.253,2.406.886,3.672a17.517,17.517,0,0,1,1.773,3.419c.633,1.773,1.266,3.672,1.9,5.445.633,2.026,1.14,4.179,1.773,6.2a1.368,1.368,0,0,0,.886-.38c1.773-1.52,1.013-5.825,1.9-7.851,1.14-2.406,3.419-3.925,4.685-6.331A8.235,8.235,0,0,0,322.663,58.27Z" transform="translate(-254.127 -45.096)"/><g transform="translate(41.438 12.668)"><path class="bn" d="M312.889,70.5,315.3,80.63,300.1,96.078l2.026-9.117L300.86,76.578Z" transform="translate(-293.009 -51)"/><path class="bo" d="M294.5,79.159l.127-24.059h14.562l.507,5.951,1.52,1.646,1.14,6.711h1.266l.127-1.52a2.491,2.491,0,0,1,2.406-2.406h0a2.381,2.381,0,0,1,2.279,2.406v1.646a2.587,2.587,0,0,1-2.406,2.406,1.634,1.634,0,0,0-1.52,1.52V75.74c0,3.419-18.994,10.89-20.007,4.685Z" transform="translate(-294.5 -55.1)"/></g><g transform="translate(0.527 55.672)"><path class="bp" d="M305.083,121.1a5.24,5.24,0,0,1-2.406-.76L276.972,97.8l-3.672,2.912s27.1,35.455,30.263,36.595c1.14.38,13.422-9.5,23.679-20.513a90.936,90.936,0,0,0-12.029-11.143C312.681,109.45,305.716,120.972,305.083,121.1Z" transform="translate(-259.234 -86.735)"/><path class="bq" d="M331.791,94.049c-4.305-7.724-14.815-6.585-19.374,4.179,0,.127-6.964,9.117-7.218,9.624a107.513,107.513,0,0,1,13.422,12.916C327.233,111.143,334.577,99.24,331.791,94.049Z" transform="translate(-250.74 -89.061)"/><path class="br" d="M271.269,94.3c-1.14-.38-2.406-.76-3.419-.127a2.714,2.714,0,0,0-1.14,1.9,6.916,6.916,0,0,0,.127,2.279c.253,1.393,10.13,5.445,12.409,3.292.76-.633,0-1.393-.127-2.406C278.487,96.45,274.182,95.437,271.269,94.3Z" transform="translate(-261.002 -87.791)"/><path class="bs" d="M272.206,95.177c-.633-1.646-10.383-2.279-10-1.393.127.886,4.179,1.14,4.812,1.266C268.66,95.557,270.433,97.2,272.206,95.177Z" transform="translate(-262.191 -87.911)"/><path class="bt" d="M271.665,95c-1.266-1.266-6.078.253-7.091,1.52a2.513,2.513,0,0,0,.506,3.166c.76-.506.127-1.393.38-2.026.253-.506.886-.506,1.519-.633C268.626,96.9,271.032,97.659,271.665,95Z" transform="translate(-261.651 -87.607)"/><path class="bu" d="M273.4,97.126c-.886-1.52-5.951-1.266-7.344-.253a2.855,2.855,0,0,0-.38,3.292c.886-.253.506-1.266.886-1.773s1.013-.253,1.646-.253C269.981,98.139,272.133,99.406,273.4,97.126Z" transform="translate(-261.359 -87.201)"/><path class="bv" d="M272.313,97.927c-.76-1.013-4.432-.633-5.318.253a2.1,2.1,0,0,0-.127,2.406c.633-.253.253-1.013.507-1.393s.633-.253,1.14-.253C269.78,98.814,271.426,99.7,272.313,97.927Z" transform="translate(-261.032 -86.862)"/></g></g></g></g><g transform="translate(405.334 13.047)"><g transform="translate(50.2 143.34)"><path class="bw" d="M375,213.027l1.773,24.565,5.318.76L385.51,212.9Z" transform="translate(-355.683 -99.697)"/><path class="bx" d="M374.7,209.9l.127,2.786H385.59l.38-2.786Z" transform="translate(-355.763 -100.495)"/><path class="by" d="M392.089,216.7c.76-5.318-1.773-11.016-2.279-16.335-1.013-10.637,1.013-21.146,1.646-31.783.253-4.938.633-9.877.886-14.942.127-1.646-.38-4.812.38-6.331a28.766,28.766,0,0,0,2.406-13.422c0-.76-.38-10.13-1.14-10.13L359.8,123.5l.633,18.487c.253,2.153,8.864,22.666,10.383,31.15.886,5.192,1.773,10.383,2.786,15.575,2.026,10.13,3.926,20.767,4.432,31.15v1.9c-1.519,2.279-1.519,3.166-.38,5.065v.507a1.684,1.684,0,0,0-.38,1.013c0,.38.253.633.38,1.013a8.88,8.88,0,0,1,.76,1.14v.507a10,10,0,0,0,.127,1.773h11.27a6.329,6.329,0,0,0,.127-1.393.761.761,0,0,1,.127-.507,2.607,2.607,0,0,0,1.14-2.026v-.507l-.38-.38a.465.465,0,0,1-.127-.38,7.4,7.4,0,0,0,.507-4.559v-.886C391.33,222.395,392.089,216.7,392.089,216.7Z" transform="translate(-359.73 -123.5)"/><g transform="translate(0 134.35)"><path class="bz" d="M366.96,248.341c6.838-2.912,16.335,1.646,21.653-3.166a19.272,19.272,0,0,1-1.393-4.052c-.506-3.039-.253-6.331-.38-9.5-1.14.38-1.52,1.14-2.786,1.266a12.757,12.757,0,0,1-3.166-.38,6.032,6.032,0,0,0-.76-2.279,28.005,28.005,0,0,0-3.166-.633,60.856,60.856,0,0,1,1.14,6.331c.253,2.406.886,5.192-1.266,6.838-1.393,1.013-6.711,2.659-10.636,3.672C366.96,246.568,366.58,247.581,366.96,248.341Z" transform="translate(-358.026 -229.6)"/><path class="ca" d="M390.331,241.9c-5.318,4.812-14.815.253-21.653,3.166-.38-.76-.127-1.773-.886-2.026-1.9.506-3.419.76-4.179.886-.633.127-2.912,0-3.419.38-1.14,1.013.127,2.026,1.14,2.406,3.8,1.52,9.5.633,13.3-.253,3.039-.76,6.331-1.646,9.5-1.14,2.026.253,4.432,1.266,6.078-.633C390.838,244.053,390.711,243.04,390.331,241.9Z" transform="translate(-359.745 -226.325)"/><path class="ca" d="M380.5,237.8a1.865,1.865,0,0,0-1.9,1.9,1.948,1.948,0,0,0,1.9,1.9,1.9,1.9,0,0,0,0-3.8Z" transform="translate(-354.727 -227.417)"/></g></g><g transform="translate(68.758 237.423)"><path class="cb" d="M376.9,208l20.007,14.435,3.925-3.546L383.611,199.9Z" transform="translate(-373.734 -197.241)"/><path class="bx" d="M374.4,206.284l2.153,1.773,6.964-8.231-1.9-2.026Z" transform="translate(-374.4 -197.8)"/><g transform="translate(18.867 18.361)"><path class="bz" d="M397.4,238.258c2.153-7.091,11.776-11.4,11.523-18.614a24.748,24.748,0,0,1-4.052-1.52c-2.659-1.646-5.065-3.925-7.6-5.825-.507,1.14,0,1.9-.76,3.039a9.782,9.782,0,0,1-2.406,2.153,7.775,7.775,0,0,0-2.279-.886,19.724,19.724,0,0,0-2.533,2.026,58.212,58.212,0,0,1,5.572,3.166c2.026,1.393,4.559,2.659,4.432,5.318-.127,1.773-2.279,6.838-4.052,10.51C396.011,237.119,396.644,238.132,397.4,238.258Z" transform="translate(-389.3 -212.3)"/><path class="ca" d="M408.5,218.1c.253,7.218-9.37,11.523-11.523,18.614-.76-.127-1.393-1.14-2.153-.633a42.152,42.152,0,0,1-2.026,3.8c-.38.507-1.9,2.153-1.9,2.786.127,1.52,1.646,1.14,2.532.633,3.546-1.9,6.585-6.838,8.357-10.257,1.393-2.786,2.912-5.951,5.192-7.977,1.519-1.393,3.8-2.533,3.419-5.065C410.527,219.113,409.641,218.48,408.5,218.1Z" transform="translate(-388.874 -210.756)"/><path class="ca" d="M399.394,218.547a1.889,1.889,0,1,0,2.659-.253A1.846,1.846,0,0,0,399.394,218.547Z" transform="translate(-386.731 -210.823)"/></g></g><g transform="translate(0 54.956)"><g transform="translate(9.74 23.036)"><path class="cc" d="M339.806,77.3,337.4,81.479s4.432,2.659,10.51,6.2a57.63,57.63,0,0,1,2.659-6.458Z" transform="translate(-325.234 -70.453)"/><path class="ap" d="M332.38,80.332c-1.14-.507-2.406-1.14-2.659-2.279a2.507,2.507,0,0,1,.506-2.279A10.936,10.936,0,0,1,332,74.127c1.14-.886,11.4,2.912,11.523,6.2,0,1.013-.886,1.266-1.773,1.646C339.6,82.865,335.292,81.472,332.38,80.332Z" transform="translate(-327.305 -71.332)"/><path class="ap" d="M333.105,80.006c-1.773.127-4.305-4.432-4.305-6.078,0-1.013,1.646-2.153,2.532-2.026.253.886-.886,1.14-1.14,1.773s.253,1.013.633,1.52C332.092,76.587,334.371,77.6,333.105,80.006Z" transform="translate(-327.524 -71.892)"/><path class="ap" d="M331.854,79.6c-1.393.253-3.925-2.912-4.052-4.305-.127-.76,1.013-1.9,1.773-1.9.38.633-.506,1.013-.633,1.52s.38.76.76,1.14C330.714,76.946,332.614,77.579,331.854,79.6Z" transform="translate(-327.792 -71.491)"/><path class="ap" d="M335.878,79.471c-1.646.507-5.318-3.166-5.572-4.812-.253-1.013,1.013-2.533,2.026-2.659.507.76-.507,1.266-.633,2.026,0,.633.507.886,1.013,1.266C334.106,76.432,336.512,76.938,335.878,79.471Z" transform="translate(-327.132 -71.864)"/><path class="ap" d="M335.728,78.025c-1.266.253-3.672-2.659-3.925-3.925-.127-.76.886-1.773,1.646-1.9.38.633-.507.886-.507,1.393-.127.506.38.633.633,1.013C334.461,75.619,336.234,76.125,335.728,78.025Z" transform="translate(-326.727 -71.81)"/></g><path class="cd" d="M328.457,83.2h0l-7.851-27.1h0c-.38,0-.507.38-.507.76l7.471,25.832A1.608,1.608,0,0,0,328.457,83.2Z" transform="translate(-320.1 -53.061)"/><path class="ce" d="M328.351,83.837,345.7,80.8l-7.851-27.1L320.5,56.739Z" transform="translate(-319.993 -53.7)"/><path class="bh" d="M328.111,80.458l15.575-2.786L336.975,54.5,321.4,57.286Z" transform="translate(-319.754 -53.487)"/><path class="cf" d="M340.368,78.591c-.38-3.292-2.026-.76-3.925-7.091-1.646.127-.38,3.292-.38,4.179,0,1.013-.886,2.026-.76,3.039A3.53,3.53,0,0,0,336.822,81c.38.253.886.507,1.013.886" transform="translate(-316.055 -48.961)"/><path class="cg" d="M367.207,82.319a4.679,4.679,0,0,0-1.773-.886c-.886,0-.507.253-1.013.76-.506.38-.127.886-1.013.886-.506,0-.76-.886-1.266-1.013a1.615,1.615,0,0,0-2.153.507c-.886-.253-.886-1.52-1.646-1.773-1.266-.506-1.266,1.013-1.9,1.013-1.14.127-3.292-4.179-4.432-1.266-1.646-.507-3.925-1.14-5.192-1.646-1.9.506-3.546,6.2-3.419,8.1,0,.76,3.925,3.039,5.192,3.672-1.9,3.925,4.052,2.026,5.445,3.546.38.506,0,1.393.633,1.773.76.507.633-.127,1.266,0,.633,0,.886-.38,1.52.253.507.38.253,1.14.633,1.519.76.76,2.279,0,3.292.507,2.533,1.266,5.7,1.52,8.484,2.153a.465.465,0,0,1,.38.127,54.56,54.56,0,0,0-2.279-17.728A7.739,7.739,0,0,1,367.207,82.319Z" transform="translate(-313.898 -46.99)"/></g><path class="ch" d="M394.351,33.726c0,.507-.633,1.14-.76,1.646,0,.507.507,1.14.507,1.773-.127.507-.76,1.013-.886,1.52s.38,1.266.253,1.773-1.013.886-1.14,1.393c-.253.507.253,1.266,0,1.773s-1.013.76-1.266,1.14c-.253.507,0,1.266-.253,1.773s-1.14.506-1.52,1.013-.127,1.266-.506,1.646-1.266.38-1.646.76-.38,1.266-.76,1.646-1.266.253-1.646.507c-.507.38-.507,1.14-1.013,1.52-.507.253-1.266,0-1.773.253s-.633,1.14-1.14,1.266c-.507.253-1.266-.127-1.773,0-.506.253-.886,1.013-1.393,1.14s-1.266-.38-1.773-.253-1.013.886-1.52.886c-.506.127-1.14-.507-1.773-.507-.507,0-1.14.76-1.646.76s-1.14-.633-1.646-.76c-.507,0-1.14.507-1.773.507-.507-.127-1.013-.76-1.52-.886s-1.266.38-1.773.253-.886-1.013-1.393-1.14c-.507-.253-1.266.253-1.773,0s-.76-1.013-1.14-1.266c-.507-.253-1.266,0-1.773-.253s-.507-1.14-1.013-1.52-1.266-.127-1.646-.507-.38-1.266-.76-1.646-1.266-.38-1.646-.76-.253-1.266-.507-1.646c-.38-.507-1.14-.507-1.519-1.013-.253-.507,0-1.266-.253-1.773s-1.14-.633-1.266-1.14c-.253-.507.127-1.266,0-1.773-.253-.507-1.013-.886-1.14-1.393s.38-1.266.253-1.773-.886-1.013-.886-1.52c-.127-.507.506-1.14.506-1.773,0-.507-.76-1.14-.76-1.646s.633-1.14.76-1.646c0-.507-.506-1.14-.506-1.773.127-.507.76-1.013.886-1.52s-.38-1.266-.253-1.773,1.013-.886,1.14-1.393c.253-.507-.253-1.266,0-1.773s1.013-.76,1.266-1.14c.253-.507,0-1.266.253-1.773s1.14-.507,1.519-1.013.127-1.266.507-1.646,1.266-.38,1.646-.76.38-1.266.76-1.646,1.266-.253,1.646-.507c.507-.38.507-1.14,1.013-1.52.507-.253,1.266,0,1.773-.253s.633-1.14,1.14-1.266c.507-.253,1.266.127,1.773,0,.507-.253.886-1.013,1.393-1.14s1.266.38,1.773.253,1.013-.886,1.52-.886c.506-.127,1.14.507,1.773.507.506,0,1.14-.76,1.646-.76s1.14.633,1.646.76c.506,0,1.14-.507,1.773-.507.506.127,1.013.76,1.52.886s1.266-.38,1.773-.253.886,1.013,1.393,1.14c.507.253,1.266-.253,1.773,0s.76,1.013,1.14,1.266c.506.253,1.266,0,1.773.253s.506,1.14,1.013,1.52,1.266.127,1.646.507.38,1.266.76,1.646,1.266.38,1.646.76.253,1.266.506,1.646c.38.507,1.14.507,1.52,1.013.253.507,0,1.266.253,1.773s1.14.633,1.266,1.14c.253.507-.127,1.266,0,1.773.253.507,1.013.886,1.14,1.393s-.38,1.266-.253,1.773.886,1.013.886,1.52c.127.507-.507,1.14-.507,1.773C393.718,32.713,394.351,33.219,394.351,33.726Z" transform="translate(-312.805 -10.3)"/><path class="ci" d="M371.28,50.7h0c13.3,0,25.452,10.763,27.225,24.059l-3.546,62.553c-.127,3.166,3.292,6.2,1.266,6.838l-2.659.76c-4.685,1.646-17.854,5.318-32.29-.127-3.039-1.14-.506-3.292-.886-6.458l-4.052-59.514C355.072,68.554,360.517,61.716,371.28,50.7Z" transform="translate(-310.499 0.457)"/><g transform="translate(45.838 23.426)"><path class="cj" d="M374.276,44.1l2.279,10v.127a11.128,11.128,0,0,1-12.916,6.2h0L362.5,50.178Z" transform="translate(-354.649 -24.726)"/><path class="ck" d="M356.3,52.606l.127-20.007a3.81,3.81,0,0,1,3.8-3.8h5.7a5.369,5.369,0,0,1,5.318,4.938l.127,1.013,1.393,1.646,1.14,6.585h1.266l.127-1.646a2.381,2.381,0,0,1,2.406-2.279h0a2.27,2.27,0,0,1,2.279,2.279v1.773a2.381,2.381,0,0,1-2.406,2.279,1.52,1.52,0,0,0-1.393,1.52v2.279c0,3.419-18.741,10.637-19.754,4.559A2.811,2.811,0,0,1,356.3,52.606Z" transform="translate(-356.3 -28.8)"/></g><g transform="translate(18.826 58.189)"><g transform="translate(0 49.063)"><path class="cl" d="M349.633,97.286,349,102.1s5.318.633,12.409,1.52a45.8,45.8,0,0,1-.127-7.218Z" transform="translate(-331.231 -94.627)"/><path class="ap" d="M343.925,103.092c-1.266,0-2.659,0-3.419-1.013a2.455,2.455,0,0,1-.38-2.279,9,9,0,0,1,1.013-2.279c.76-1.266,11.9-1.9,13.3,1.14.507.886-.38,1.393-1.013,2.279C351.776,103.6,347.218,103.092,343.925,103.092Z" transform="translate(-333.627 -94.608)"/><path class="ap" d="M345.265,101.619c-1.14,1.393-11.016-1.393-10.257-2.153.38-.886,4.432.38,5.065.38C341.973,100.1,344.252,98.96,345.265,101.619Z" transform="translate(-334.967 -93.895)"/><path class="ap" d="M344.575,102.391c-1.646.76-5.825-2.406-6.458-4.052-.38-.886.633-2.659,1.519-3.039.633.76-.38,1.393-.253,2.153,0,.633.633.76,1.266,1.14C342.169,99.605,344.7,99.732,344.575,102.391Z" transform="translate(-334.15 -94.92)"/><path class="ap" d="M346.977,100.772c-1.393,1.14-6.2-.886-7.218-2.279-.633-.76-.127-2.786.76-3.292.76.507,0,1.393.253,2.153.253.633.886.633,1.52.76C344.065,98.619,346.6,97.986,346.977,100.772Z" transform="translate(-333.766 -94.947)"/><path class="ap" d="M346.219,99.432c-1.14.76-4.559-1.013-5.192-2.026a2.231,2.231,0,0,1,.76-2.406c.506.507-.127,1.013.127,1.52.127.507.633.507,1.013.633C344.193,97.659,345.966,97.406,346.219,99.432Z" transform="translate(-333.388 -95)"/><path class="cm" d="M346.259,101.962c.253-1.773-5.192-1.9-6.458-2.279-.127-1.646,3.292-.886,4.179-1.013,1.013-.127,1.9-1.266,2.912-1.266a3.375,3.375,0,0,1,2.533,1.14c.38.253.633.76,1.14.886" transform="translate(-333.681 -94.364)"/></g><path class="bz" d="M398.554,113.547a3.024,3.024,0,0,0,.253-1.14c-.38-5.192.76-10.383,1.14-15.575a92.11,92.11,0,0,0-2.279-24.945c-1.013-4.685-2.659-13.676-8.231-15.2a9.5,9.5,0,0,0-11.9,5.951,15.123,15.123,0,0,0-.127,8.864c1.266,4.938,1.393,10,2.533,14.942h.127v2.659a6.05,6.05,0,0,1-.76,2.279c-.506,1.646.38,1.266,1.013,2.533.76,1.393-.507,1.9-.76,2.786-.253,1.393.886,1.52,1.393,2.659.633,1.646-.507,1.9-1.9,1.773-.507,0-1.52-.38-2.026-.127-.886.38-.253.506-.633,1.013-.253.507.253.886-.506,1.266-.507.127-1.14-.507-1.52-.507a1.577,1.577,0,0,0-1.773,1.266c-.886,0-1.52-1.013-2.279-1.013-1.266,0-.76,1.393-1.393,1.773-1.013.507-4.812-2.533-4.559.633a47.8,47.8,0,0,1-5.572.507c-1.646,1.14-.76,7.218.127,8.864.38.633,4.938,1.266,6.331,1.393-.127,4.432,4.685.127,6.585,1.14.506.253.633,1.266,1.393,1.393.886.127.633-.38,1.14-.507.633-.253.633-.633,1.52-.38.76.127.76,1.013,1.266,1.14,1.013.38,2.026-1.013,3.292-.886,2.786.127,5.951-.886,8.737-1.393C390.957,116.586,397.161,115.953,398.554,113.547Z" transform="translate(-328.869 -56.253)"/></g><path class="cn" d="M387.84,216.17l-.38-.38a2.872,2.872,0,0,0-.886-2.279c-.127-.127-.253-.253-.38-.253h-.507a.465.465,0,0,1-.38-.127,7.269,7.269,0,0,0-3.166-3.292c-.127-.127-.506-.38-.633-.507l-3.8-4.305c-3.546-3.925-9.37-5.7-13.676-8.611l5.7-18.234,3.925-8.484-2.533-14.309a19.408,19.408,0,0,0-3.672-8.231,13.266,13.266,0,0,1-2.533-6.458c-.76-6.078-1.266-15.7-1.266-15.7L347.7,194.264v9.37l9.75,4.812a151.8,151.8,0,0,1,14.056,9.5c.253.127.38.38.633.506a1.749,1.749,0,0,0,.507.38,3.847,3.847,0,0,0,.633.886c.76,2.153,1.393,2.659,3.545,3.039l.38.38a2.544,2.544,0,0,0,.506,1.013,2.385,2.385,0,0,0,1.013.253c.38,0,.886.127,1.393.127.127.127.253.253.38.253a12.067,12.067,0,0,1,1.393,1.14l7.218-8.611A3.253,3.253,0,0,1,387.84,216.17Z" transform="translate(-312.751 20.24)"/></g><g transform="translate(200.074 59.22)"><g transform="translate(12.536 124.772)"><path class="co" d="M195.758,145.3l23.173,61.793s2.786,31.91,4.432,51.157v.253c.127.127.127.253.253.38.507,2.659-1.393,3.925.886,5.7v.38a6.678,6.678,0,0,1-.38,1.52c0,.127.127.253.127.38a4.141,4.141,0,0,1,.253,4.052v.253l.127,1.013-5.7.506a.392.392,0,0,0-.127-.253c-.38-.886-2.912-.253-2.279-2.153a3.041,3.041,0,0,0,.76-1.9c0-.127-.127-.127-.127-.253a2.466,2.466,0,0,1-1.646-2.406v-.76c-.76-.886.506-2.153-.633-3.039a.442.442,0,0,0-.127-.253c-3.166-8.1-6.838-17.854-6.838-17.854a56.366,56.366,0,0,1-2.406-18.361l.38-8.611L167.9,159.355Z" transform="translate(-167.9 -145.3)"/><path class="j" d="M223.5,252.611c-4.432-3.039-8.231-5.318-8.737-6.331,0-.127-.127-.253-.127-.38-2.026.253-4.179.507-6.2.633-.507,2.153-1.646,6.2-.76,7.218s4.432,1.14,6.838.76c2.659-.38,3.166,1.013,5.7,1.266,1.646.253,10,.127,9.244-1.266C228.942,253.624,223.624,252.611,223.5,252.611Z" transform="translate(-157.398 -118.515)"/></g><g transform="translate(1.646 140.22)"><path class="r" d="M202.64,168.7H163.766a1.249,1.249,0,0,0-1.266,1.14,1.169,1.169,0,0,0,1.266,1.14h16.968V207.7h2.406V170.979h19.374a1.249,1.249,0,0,0,1.266-1.14A1.135,1.135,0,0,0,202.64,168.7Z" transform="translate(-158.448 -154.518)"/><rect class="r" width="5.065" height="3.799" transform="translate(21.02 54.196)"/><path class="r" d="M196.1,239.808H183.687V204.1h-5.065v35.708H166.213a1,1,0,0,0-1.013,1.013h0a1,1,0,0,0,1.013,1.013h12.409v19.12h5.065V241.581H196.1a1,1,0,0,0,1.013-1.013h0C197.11,240.188,196.73,239.808,196.1,239.808Z" transform="translate(-157.729 -145.092)"/><path class="r" d="M179.308,249.9,163.1,253.192h37.481L184.373,249.9Z" transform="translate(-158.288 -132.898)"/><path class="bj" d="M202.1,171.682H165.5a6.215,6.215,0,0,1-6.2-6.2V163.7a6.215,6.215,0,0,1,6.2-6.2H202.1a6.215,6.215,0,0,1,6.2,6.2v1.773A6.215,6.215,0,0,1,202.1,171.682Z" transform="translate(-159.3 -157.5)"/></g><g transform="translate(38.114 92.609)"><path class="cp" d="M190.506,119.9l33.429,7.091-.127,4.305L188.1,133.576Z" transform="translate(-188.1 -119.9)"/><path class="cq" d="M221.1,122.15a3.563,3.563,0,0,1,2.912-1.14,2.365,2.365,0,0,1,1.52,1.393,4.01,4.01,0,0,1,.507,2.026c.253,1.266-6.964,7.724-9.624,6.585-.76-.38-.506-1.14-.506-2.026C215.655,126.2,218.948,124.049,221.1,122.15Z" transform="translate(-180.707 -119.618)"/><path class="cr" d="M221.4,121.163c1.266-1.013,5.445.76,6.331,1.9a2.535,2.535,0,0,1-.633,2.912c-.633-.507,0-1.266-.253-1.9-.127-.507-.76-.507-1.266-.76C224.059,123.063,221.906,123.569,221.4,121.163Z" transform="translate(-179.234 -119.644)"/><path class="cs" d="M220.7,122.663c1.266-1.013,5.445.76,6.331,1.9a2.535,2.535,0,0,1-.633,2.912c-.633-.507,0-1.266-.253-1.9-.127-.507-.76-.507-1.266-.76C223.359,124.436,221.206,124.943,220.7,122.663Z" transform="translate(-179.42 -119.244)"/><path class="ct" d="M220.2,123.763c1.266-1.013,5.445.76,6.331,1.9a2.535,2.535,0,0,1-.633,2.912c-.633-.507,0-1.266-.253-1.9-.127-.506-.76-.506-1.266-.76C222.733,125.663,220.58,126.169,220.2,123.763Z" transform="translate(-179.553 -118.952)"/><path class="cu" d="M220.4,124.949c.886-.76,4.052.507,4.685,1.393a1.8,1.8,0,0,1-.506,2.153c-.507-.38,0-.886-.127-1.393-.127-.38-.506-.38-1.013-.506C222.426,126.215,220.78,126.6,220.4,124.949Z" transform="translate(-179.5 -118.618)"/><path class="cv" d="M220.153,123.466c.633,1.52,5.318-1.013,6.458-1.266.886,1.266-2.279,2.406-2.912,2.912-.76.633-.886,1.9-1.773,2.533a2.86,2.86,0,0,1-2.659.253,2.189,2.189,0,0,0-1.266-.127" transform="translate(-180.139 -119.288)"/></g><path class="cw" d="M197.671,147.59c-3.292-3.292-3.292-5.065-2.533-9.877l-32.29-1.013c-2.279,9.37-4.052,17.854,1.9,24.945,6.585,7.851,45.839,28.744,45.205,32.163-.76,3.8-10.51,18.614-19.627,30.77,0,.127-.127.127-.127.253-.38,2.153-2.912,2.153-4.179,3.8a.465.465,0,0,0-.127.38c-.253.886-.127,2.026-.76,2.406,0,.127-.127.127-.127.253a14.326,14.326,0,0,0-1.266,1.646c1.9,2.406,2.659,3.419,4.559,5.951a4.571,4.571,0,0,1,.633-.507l.253-.253c2.786.507,2.786-.76,3.166-2.533.127-.127.253-.127.253-.253l.253-.253c2.786.38,2.153-.886,3.419-2.659.127-.127.253-.127.38-.253,11.9-9.5,32.923-26.591,40.394-33.429a3.763,3.763,0,0,0,.38-5.192C225.782,180.133,201.344,151.262,197.671,147.59Z" transform="translate(-157.278 -22.818)"/><path class="cx" d="M185.6,77.2h0c-13.549,0-25.832,10.89-27.6,24.439l3.8,49.637c.127,3.546-.76,7.471,1.9,9.877,8.611,7.6,32.036-1.52,32.036-1.52,3.292,0,.633-4.305,1.013-7.471l3.8-46.472C201.939,95.307,195.861,77.2,185.6,77.2Z" transform="translate(-158 -38.66)"/><g transform="translate(17.282)"><path class="cy" d="M177.206,70.5,174.8,80.63l11.27,8.484,2.406-1.52.76-11.016Z" transform="translate(-170.809 -40.444)"/><path class="cz" d="M204.51,52.128c-.506-3.166-3.292-5.065-6.331-5.318a7.719,7.719,0,0,0-3.8.507c-.38.127-3.166,1.393-2.912,1.773-3.419-3.546-10.89-2.279-11.4,3.546h-1.52a7.461,7.461,0,0,0-6.078,3.925,5.754,5.754,0,0,0,.253,6.331c.253.38.886,1.266,1.266,1.393-.127.253.127.886.127,1.266.127.76,3.166,10,3.166,11.65a11.132,11.132,0,0,1,1.773.253,11.616,11.616,0,0,1,1.646-4.559c.127-.253.38-.507.506-.76v-.507c.38-1.646,0-3.546,1.266-4.812.38-.38,1.14-.507,1.393-1.013.253-.38,0-5.192.633-6.331.76-1.14,10.89-1.266,11.776-.507.886.886.76,8.357.886,8.231.127-.253.127-.633.253-1.013.253-1.773,1.14-3.419,1.393-5.318.127-1.266,1.393-1.393,2.279-1.773A6.812,6.812,0,0,0,204.51,52.128Z" transform="translate(-171.648 -46.764)"/><path class="da" d="M197.432,79.159,197.306,55.1H182.744l-.507,5.951-1.52,1.646-1.14,6.711h-1.266l-.127-1.52a2.491,2.491,0,0,0-2.406-2.406h0a2.381,2.381,0,0,0-2.279,2.406v1.646a2.587,2.587,0,0,0,2.406,2.406,1.634,1.634,0,0,1,1.519,1.52V75.74c0,3.419,18.994,10.89,20.007,4.685A2.146,2.146,0,0,0,197.432,79.159Z" transform="translate(-171.155 -44.544)"/><path class="db" d="M197.37,61h-3.546a1.877,1.877,0,0,0-1.773,1.52h-.633a2.017,2.017,0,0,0-1.9-1.52h-3.8a2.017,2.017,0,0,0-1.9,1.52h-6.2a6.826,6.826,0,0,0-4.432,1.646l-.253.127a.448.448,0,0,0,.633.633l.253-.127a6.189,6.189,0,0,1,3.925-1.393h6.078v.633a3.838,3.838,0,0,0,3.925,3.8h.507a3.4,3.4,0,0,0,3.419-3.419v-1.14h.633v.633a3.682,3.682,0,0,0,3.546,3.8h.506a3.26,3.26,0,0,0,3.039-3.419v-1.52A2.047,2.047,0,0,0,197.37,61Zm-6.711,3.419a2.54,2.54,0,0,1-2.533,2.533h-.507a2.865,2.865,0,0,1-2.912-2.912V62.9a1.089,1.089,0,0,1,1.013-1.013h3.925a1,1,0,0,1,1.013,1.013Zm7.724,0a2.4,2.4,0,0,1-2.153,2.533h-.507a2.91,2.91,0,0,1-2.659-2.912V62.9a.979.979,0,0,1,.886-1.013H197.5a.979.979,0,0,1,.886,1.013Z" transform="translate(-171.346 -42.973)"/></g><g transform="translate(61.562 48.923)"><rect class="ca" width="1.266" height="1.52" transform="matrix(0.99, -0.139, 0.139, 0.99, 0, 1.986)"/><rect class="ca" width="11.65" height="1.52" transform="matrix(0.99, -0.139, 0.139, 0.99, 1.449, 1.824)"/><path class="ca" d="M217.506,85.5H217l.253,1.52h.506Z" transform="translate(-203.853 -85.373)"/><path class="ca" d="M217.827,86.793c.886-.253,2.153-.633,2.153-1.013,0-.253-1.393-.38-2.279-.38Z" transform="translate(-203.667 -85.4)"/></g><path class="dc" d="M196.225,115.616a3.186,3.186,0,0,1-2.406.38,11.578,11.578,0,0,1-1.773-.886c-.633-.127-3.292-7.471-3.546-7.977-.253-.38-.76-.633-1.013-1.14a5.343,5.343,0,0,1-.38-1.52,11.518,11.518,0,0,0-1.773-4.305,46.484,46.484,0,0,1-3.419-9.117c0-.127,0-.127-.127-.253-2.279-7.724-12.156-10.257-17.6-4.305a11.081,11.081,0,0,0-2.153,3.546c-1.9,5.572.76,11.65,3.166,17.094a3.017,3.017,0,0,1,.38,1.773c-.127.886-.886,1.646-.76,2.659.253,1.393,2.533,1.646,3.039,3.039a11.078,11.078,0,0,1,.253,2.026,3.278,3.278,0,0,0,.886,1.393,37.72,37.72,0,0,1,5.825,8.99,84.507,84.507,0,0,0,6.838,9.75c1.266,1.646,3.546,2.786,5.445,2.279,2.912-.76,4.938-4.812,7.851-4.052a1.83,1.83,0,0,0,.886.253c1.266.127,1.646-1.646,1.646-2.912h0a2.051,2.051,0,0,0,2.153-1.266,3.174,3.174,0,0,1,.507-.886c.506-.633,1.393-1.14,1.9-1.9.127-.127.253-.38.38-.507C201.923,125.113,197.238,118.275,196.225,115.616Z" transform="translate(-157.097 -37.062)"/><g transform="translate(39.001 48.411)"><path class="dd" d="M188.8,112.634,214,94.4l3.039,2.912-22.159,28.111Z" transform="translate(-188.8 -82.491)"/><path class="de" d="M208.537,89.993a3.474,3.474,0,0,1,1.013-2.912,2.328,2.328,0,0,1,2.026-.253,6.415,6.415,0,0,1,1.9.886c1.14.633,1.013,10.383-1.52,11.523-.76.38-1.14-.507-1.9-1.013C207.777,96.7,208.41,92.779,208.537,89.993Z" transform="translate(-183.592 -84.542)"/><path class="df" d="M208.8,88.42c0-1.646,4.179-3.546,5.7-3.419a2.325,2.325,0,0,1,1.646,2.406c-.76.253-.886-.76-1.52-1.013-.506-.253-.886.127-1.393.506C211.839,87.787,210.826,89.686,208.8,88.42Z" transform="translate(-183.475 -84.995)"/><path class="dg" d="M209.4,89.92c0-1.646,4.179-3.546,5.7-3.419a2.325,2.325,0,0,1,1.646,2.406c-.76.253-.886-.76-1.52-1.013-.507-.253-.886.127-1.393.506C212.439,89.287,211.426,91.186,209.4,89.92Z" transform="translate(-183.315 -84.596)"/><path class="dh" d="M209.9,91.12c0-1.646,4.179-3.546,5.7-3.419a2.325,2.325,0,0,1,1.646,2.406c-.76.253-.886-.76-1.52-1.013-.507-.253-.886.127-1.393.507C212.939,90.36,211.926,92.386,209.9,91.12Z" transform="translate(-183.182 -84.276)"/><path class="di" d="M210.9,91.534c0-1.14,3.039-2.659,4.179-2.533a1.9,1.9,0,0,1,1.266,1.773c-.633.127-.633-.633-1.14-.76-.38-.127-.633.127-1.013.38C213.179,91.028,212.419,92.42,210.9,91.534Z" transform="translate(-182.916 -83.931)"/></g><path class="j" d="M186.979,231.607c.38-.633-.127-1.013-.633-1.266l.127-.127a.974.974,0,0,0-.127-1.266c-2.026-2.026-3.166-8.611-2.533-9.75.127-.127.127-.253.253-.38-1.52-1.773-3.039-3.546-4.685-5.318-2.279.886-6.078,1.773-6.458,3.166a10.637,10.637,0,0,0,1.013,5.951c1.52,2.533,3.039,5.065,4.432,7.6.886,1.646,1.266,4.559,2.533,5.7,1.266,1.013,9.244,2.026,10.637.76C193.69,234.9,187.866,232.367,186.979,231.607Z" transform="translate(-154.057 -2.369)"/></g></g></svg>